<svg width="51" height="32" viewBox="0 0 51 32" fill="none" xmlns="http://www.w3.org/2000/svg">
<g clip-path="url(#clip0_2320_103)">
<mask id="mask0_2320_103" style="mask-type:luminance" maskUnits="userSpaceOnUse" x="0" y="0" width="51" height="32">
<path d="M50.5 0.615234H0.5V31.3845H50.5V0.615234Z" fill="white"/>
</mask>
<g mask="url(#mask0_2320_103)">
<path d="M50.5 24.7907H0.5V18.9038C0.5 16.7845 2.22684 15.0576 4.34615 15.0576H46.6146C48.7339 15.0576 50.4608 16.7845 50.4608 18.9038L50.5 24.7907ZM1.67739 23.6133H49.3619V18.9038C49.3619 17.4124 48.1452 16.1958 46.6538 16.1958H4.34615C2.85479 16.1958 1.67739 17.4124 1.67739 18.9038V23.6133Z" fill="#DC9171"/>
<path d="M46.8504 15.6074H45.673V9.99514C45.673 5.44255 41.9839 1.79263 37.4705 1.79263H13.1377C8.58513 1.79263 4.93521 5.4818 4.93521 9.99514V15.6074H3.75781V9.99514C3.79706 4.81461 7.99643 0.615234 13.1377 0.615234H37.4313C42.6118 0.615234 46.8112 4.81461 46.8112 9.99514V15.6074H46.8504Z" fill="#DC9171"/>
<path d="M24.4804 15.607H23.303V11.0544C23.303 10.2695 22.8713 9.52381 22.1649 9.13134C18.9859 7.28676 15.0613 7.28676 11.8038 9.09209C11.0974 9.48456 10.6657 10.191 10.6657 11.0152V15.6463H9.48828V10.9759C9.48828 9.75928 10.1555 8.62114 11.2151 8.03244C14.7866 6.03087 19.1429 6.03087 22.7143 8.07169C23.774 8.66038 24.4412 9.79853 24.4412 11.0152V15.607H24.4804Z" fill="#DC9171"/>
<path d="M42.2968 15.607H41.1194V11.0544C41.1194 10.2695 40.6877 9.52381 39.9813 9.13134C36.7631 7.28676 32.8384 7.28676 29.6202 9.09209C28.9138 9.48456 28.4821 10.191 28.4821 11.0152V15.6463H27.3047V10.9759C27.3047 9.75928 27.9719 8.62114 29.0315 8.03244C32.603 6.03087 36.9593 6.03087 40.5307 8.07169C41.5904 8.66038 42.2576 9.79853 42.2576 11.0152L42.2968 15.607Z" fill="#DC9171"/>
<path d="M48.3024 24.2021H47.125V31.3843H48.3024V24.2021Z" fill="#DC9171"/>
<path d="M4.38443 24.2021H3.20703V31.3843H4.38443V24.2021Z" fill="#DC9171"/>
</g>
</g>
<defs>
<clipPath id="clip0_2320_103">
<rect width="50" height="30.7692" fill="white" transform="translate(0.5 0.615234)"/>
</clipPath>
</defs>
</svg>
