<svg width="35" height="30" viewBox="0 0 35 30" fill="none" xmlns="http://www.w3.org/2000/svg">
<g clip-path="url(#clip0_2320_244)">
<path d="M12.016 23.2238C12.2198 23.02 12.2198 22.6852 12.016 22.4741C11.8122 22.2703 11.4775 22.2703 11.2664 22.4741C10.1456 23.5949 10.1456 25.4144 11.2664 26.5353C11.9724 27.2412 11.9724 28.3912 11.2664 29.0971C11.0626 29.3009 11.0626 29.6357 11.2664 29.8468C11.3683 29.9487 11.5066 29.9996 11.6376 29.9996C11.7686 29.9996 11.9069 29.9487 12.0088 29.8468C13.1296 28.7259 13.1296 26.9064 12.0088 25.7856C11.3028 25.0797 11.3028 23.9297 12.0088 23.2238H12.016Z" fill="#DC9171"/>
<path d="M17.8383 23.2238C18.0421 23.02 18.0421 22.6852 17.8383 22.4741C17.6345 22.2703 17.2997 22.2703 17.0887 22.4741C15.9678 23.5949 15.9678 25.4144 17.0887 26.5353C17.7946 27.2412 17.7946 28.3912 17.0887 29.0971C16.8849 29.3009 16.8849 29.6357 17.0887 29.8468C17.1906 29.9487 17.3288 29.9996 17.4598 29.9996C17.5908 29.9996 17.7291 29.9487 17.831 29.8468C18.9518 28.7259 18.9518 26.9064 17.831 25.7856C17.125 25.0797 17.125 23.9297 17.831 23.2238H17.8383Z" fill="#DC9171"/>
<path d="M6.19376 23.2238C6.39755 23.02 6.39755 22.6852 6.19376 22.4741C5.98998 22.2703 5.65519 22.2703 5.44413 22.4741C4.32331 23.5949 4.32331 25.4144 5.44413 26.5353C6.15009 27.2412 6.15009 28.3912 5.44413 29.0971C5.24034 29.3009 5.24034 29.6357 5.44413 29.8468C5.54602 29.9487 5.6843 29.9996 5.81531 29.9996C5.94631 29.9996 6.08459 29.9487 6.18648 29.8468C7.3073 28.7259 7.3073 26.9064 6.18648 25.7856C5.48052 25.0797 5.48052 23.9297 6.18648 23.2238H6.19376Z" fill="#DC9171"/>
<path d="M23.6606 23.2238C23.8643 23.02 23.8643 22.6852 23.6606 22.4741C23.4568 22.2703 23.122 22.2703 22.9109 22.4741C21.7901 23.5949 21.7901 25.4144 22.9109 26.5353C23.6169 27.2412 23.6169 28.3912 22.9109 29.0971C22.7071 29.3009 22.7071 29.6357 22.9109 29.8468C23.0128 29.9487 23.1511 29.9996 23.2821 29.9996C23.4131 29.9996 23.5514 29.9487 23.6533 29.8468C24.7741 28.7259 24.7741 26.9064 23.6533 25.7856C22.9473 25.0797 22.9473 23.9297 23.6533 23.2238H23.6606Z" fill="#DC9171"/>
<path d="M29.4828 23.2238C29.6866 23.02 29.6866 22.6852 29.4828 22.4741C29.279 22.2703 28.9443 22.2703 28.7332 22.4741C27.6124 23.5949 27.6124 25.4144 28.7332 26.5353C29.4392 27.2412 29.4392 28.3912 28.7332 29.0971C28.5294 29.3009 28.5294 29.6357 28.7332 29.8468C28.8351 29.9487 28.9734 29.9996 29.1044 29.9996C29.2354 29.9996 29.3737 29.9487 29.4755 29.8468C30.5964 28.7259 30.5964 26.9064 29.4755 25.7856C28.7696 25.0797 28.7696 23.9297 29.4755 23.2238H29.4828Z" fill="#DC9171"/>
<path d="M31.7613 0H3.17322C1.42649 0 0 1.42649 0 3.17322V15.8006C0 17.5546 1.42649 18.9738 3.17322 18.9738H31.754C33.508 18.9738 34.9272 17.5473 34.9272 15.8006V3.17322C34.9272 1.42649 33.5007 0 31.754 0H31.7613ZM1.05531 3.17322C1.05531 2.00873 2.00873 1.05531 3.17322 1.05531H31.754C32.9185 1.05531 33.8719 2.00146 33.8719 3.17322V9.83988H1.05531V3.17322ZM5.10917 17.9185L6.67394 14.9345H28.2678L29.8326 17.9185H5.10917ZM33.8792 15.8006C33.8792 16.9651 32.933 17.9185 31.7613 17.9185H31.0262L29.0539 14.163C28.9592 13.9884 28.7846 13.8792 28.5881 13.8792H6.35371C6.1572 13.8792 5.97525 13.9884 5.88792 14.163L3.91557 17.9185H3.18049C2.01601 17.9185 1.06259 16.9723 1.06259 15.8006V10.8952H33.8792V15.8006Z" fill="#DC9171"/>
<path d="M31.2306 6.51367H3.70512C3.414 6.51367 3.17383 6.75385 3.17383 7.04497C3.17383 7.33609 3.414 7.57626 3.70512 7.57626H31.2306C31.5217 7.57626 31.7619 7.33609 31.7619 7.04497C31.7619 6.75385 31.5217 6.51367 31.2306 6.51367Z" fill="#DC9171"/>
<path d="M31.2306 3.32617H3.70512C3.414 3.32617 3.17383 3.56635 3.17383 3.85747C3.17383 4.14859 3.414 4.38876 3.70512 4.38876H31.2306C31.5217 4.38876 31.7619 4.14859 31.7619 3.85747C31.7619 3.56635 31.5217 3.32617 31.2306 3.32617Z" fill="#DC9171"/>
</g>
<defs>
<clipPath id="clip0_2320_244">
<rect width="34.9345" height="30" fill="white"/>
</clipPath>
</defs>
</svg>
