<svg width="35" height="34" viewBox="0 0 35 34" fill="none" xmlns="http://www.w3.org/2000/svg">
<g clip-path="url(#clip0_2320_255)">
<path d="M31.489 0H3.14601C1.41426 0 0 1.41426 0 3.14601V28.3357C0 30.0747 1.41426 31.4817 3.14601 31.4817H3.60781C3.86036 32.9104 5.10144 34 6.59508 34C8.08871 34 9.33701 32.9104 9.58956 31.4817H25.0382C25.2907 32.9104 26.5318 34 28.0255 34C29.5191 34 30.7674 32.9104 31.0127 31.4817H31.4745C33.2135 31.4817 34.6205 30.0675 34.6205 28.3357V3.14601C34.6205 1.41426 33.2063 0 31.4745 0H31.489ZM6.60229 32.9537C5.68591 32.9537 4.92105 32.3332 4.69015 31.489H8.51443C8.28353 32.3332 7.51867 32.9537 6.60229 32.9537ZM28.0327 32.9537C27.1163 32.9537 26.3514 32.3332 26.1205 31.489H29.9448C29.7139 32.3332 28.9491 32.9537 28.0327 32.9537ZM33.5887 28.3357C33.5887 29.4902 32.6507 30.4355 31.489 30.4355H3.14601C1.99151 30.4355 1.04626 29.4902 1.04626 28.3357V3.14601C1.04626 1.99151 1.9843 1.04626 3.14601 1.04626H31.4817C32.6362 1.04626 33.5815 1.9843 33.5815 3.14601V28.3357H33.5887Z" fill="#DC9171"/>
<path d="M28.7766 4.19922H5.85977C4.94338 4.19922 4.20017 4.94243 4.20017 5.85881V7.38852H3.55798C2.98073 7.38852 2.51172 7.85754 2.51172 8.442V10.9819C2.51172 11.5592 2.98073 12.0282 3.55798 12.0282H4.20017V19.4603H3.55798C2.98073 19.4603 2.51172 19.9293 2.51172 20.5137V23.0536C2.51172 23.6309 2.98073 24.0999 3.55798 24.0999H4.20017V25.6296C4.20017 26.546 4.94338 27.2892 5.85977 27.2892H28.7766C29.693 27.2892 30.4362 26.546 30.4362 25.6296V5.85881C30.4362 4.94243 29.693 4.19922 28.7766 4.19922ZM3.55077 8.442H6.09067V10.9819H3.55077V8.442ZM3.55077 20.5137H6.09067V23.0536H3.55077V20.5137ZM29.3899 25.6296C29.3899 25.9687 29.1157 26.2429 28.7766 26.2429H5.85977C5.52063 26.2429 5.24644 25.9687 5.24644 25.6296V24.0999H6.09067C6.66791 24.0999 7.13693 23.6309 7.13693 23.0536V20.5137C7.13693 19.9365 6.66791 19.4603 6.09067 19.4603H5.24644V12.0282H6.09067C6.66791 12.0282 7.13693 11.5592 7.13693 10.9819V8.442C7.13693 7.86475 6.66791 7.38852 6.09067 7.38852H5.24644V5.85881C5.24644 5.51968 5.52063 5.24548 5.85977 5.24548H28.7766C29.1157 5.24548 29.3899 5.51968 29.3899 5.85881V25.6224V25.6296Z" fill="#DC9171"/>
<path d="M19.9882 7.38867H10.3842C10.0955 7.38867 9.85742 7.62679 9.85742 7.91541V23.5733C9.85742 23.8619 10.0955 24.1 10.3842 24.1H19.9882C20.2768 24.1 20.5149 23.8619 20.5149 23.5733V7.91541C20.5149 7.62679 20.2768 7.38867 19.9882 7.38867ZM10.9109 8.44215H19.4614V11.5809H10.9109V8.44215ZM19.4614 23.0466H10.9109V12.6272H19.4614V23.0466Z" fill="#DC9171"/>
<path d="M25.0738 9.7334C23.6306 9.7334 22.4473 10.9095 22.4473 12.3527C22.4473 13.1464 22.808 13.8463 23.3636 14.3297V20.0445C23.3636 20.9826 24.1285 21.7546 25.0665 21.7546C26.0046 21.7546 26.7694 20.9898 26.7694 20.0445V14.3297C27.325 13.8463 27.6858 13.1464 27.6858 12.3527C27.6858 10.9095 26.5097 9.7334 25.0593 9.7334H25.0738ZM25.0738 10.7797C25.9396 10.7797 26.6468 11.4868 26.6468 12.3527C26.6468 13.2185 25.9396 13.9257 25.0738 13.9257C24.2079 13.9257 23.5007 13.2185 23.5007 12.3527C23.5007 11.4868 24.2079 10.7797 25.0738 10.7797ZM25.7304 20.0445C25.7304 20.4053 25.4345 20.7011 25.0738 20.7011C24.713 20.7011 24.4171 20.4053 24.4171 20.0445V14.8854C24.6264 14.9431 24.8429 14.9792 25.0738 14.9792C25.3047 14.9792 25.5211 14.9431 25.7304 14.8854V20.0445Z" fill="#DC9171"/>
<path d="M12.8223 15.218C12.9594 15.218 13.0965 15.1603 13.1975 15.0665C13.2913 14.9654 13.349 14.8283 13.349 14.6913C13.349 14.5542 13.2913 14.4171 13.1975 14.316C12.9954 14.1212 12.6491 14.1212 12.4543 14.316C12.3605 14.4171 12.3027 14.5542 12.3027 14.6913C12.3027 14.8283 12.3605 14.9654 12.4543 15.0665C12.5553 15.1603 12.6924 15.218 12.8295 15.218H12.8223Z" fill="#DC9171"/>
<path d="M15.1888 15.2175C15.4775 15.2175 15.7156 14.9794 15.7156 14.6908C15.7156 14.4022 15.4775 14.1641 15.1888 14.1641C14.9002 14.1641 14.6621 14.4022 14.6621 14.6908C14.6621 14.9794 14.9002 15.2175 15.1888 15.2175Z" fill="#DC9171"/>
<path d="M17.5488 15.218C17.6859 15.218 17.823 15.1675 17.924 15.0665C18.0251 14.9654 18.0756 14.8283 18.0756 14.6913C18.0756 14.5542 18.0178 14.4171 17.924 14.316C17.722 14.1212 17.3756 14.1212 17.1808 14.316C17.087 14.4171 17.0293 14.5469 17.0293 14.6913C17.0293 14.8356 17.087 14.9654 17.1808 15.0665C17.2818 15.1603 17.4189 15.218 17.556 15.218H17.5488Z" fill="#DC9171"/>
<path d="M12.8223 17.3098C12.9594 17.3098 13.0965 17.2521 13.1975 17.1583C13.2913 17.0572 13.349 16.9201 13.349 16.783C13.349 16.646 13.2913 16.5089 13.1975 16.4078C12.9954 16.213 12.6491 16.213 12.4543 16.4078C12.3605 16.5089 12.3027 16.646 12.3027 16.783C12.3027 16.9201 12.3605 17.0572 12.4543 17.1583C12.5553 17.2521 12.6924 17.3098 12.8295 17.3098H12.8223Z" fill="#DC9171"/>
<path d="M15.1888 17.3103C15.4775 17.3103 15.7156 17.0722 15.7156 16.7836C15.7156 16.495 15.4775 16.2568 15.1888 16.2568C14.9002 16.2568 14.6621 16.495 14.6621 16.7836C14.6621 17.0722 14.9002 17.3103 15.1888 17.3103Z" fill="#DC9171"/>
<path d="M17.5488 17.31C17.6859 17.31 17.823 17.2523 17.924 17.1585C18.0178 17.0575 18.0756 16.9204 18.0756 16.7833C18.0756 16.6462 18.0178 16.5091 17.924 16.4081C17.722 16.2132 17.3756 16.2205 17.1808 16.4081C17.087 16.5091 17.0293 16.6462 17.0293 16.7833C17.0293 16.9204 17.087 17.0575 17.1808 17.1585C17.2818 17.2523 17.4117 17.31 17.556 17.31H17.5488Z" fill="#DC9171"/>
<path d="M12.8223 19.4104C12.9594 19.4104 13.0965 19.3599 13.1975 19.2588C13.2913 19.1578 13.349 19.0207 13.349 18.8836C13.349 18.7465 13.2913 18.6094 13.1975 18.5084C12.9954 18.3136 12.6491 18.3136 12.4543 18.5084C12.3605 18.6022 12.3027 18.7393 12.3027 18.8764C12.3027 19.0135 12.3605 19.1506 12.4543 19.2516C12.5553 19.3526 12.6924 19.4032 12.8295 19.4032L12.8223 19.4104Z" fill="#DC9171"/>
<path d="M15.1888 19.4099C15.4775 19.4099 15.7156 19.1718 15.7156 18.8832C15.7156 18.5946 15.4775 18.3564 15.1888 18.3564C14.9002 18.3564 14.6621 18.5946 14.6621 18.8832C14.6621 19.1718 14.9002 19.4099 15.1888 19.4099Z" fill="#DC9171"/>
<path d="M17.5488 19.4104C17.6859 19.4104 17.823 19.3599 17.924 19.2588C18.0251 19.1578 18.0756 19.0207 18.0756 18.8836C18.0756 18.7465 18.0251 18.6094 17.924 18.5084C17.722 18.3136 17.3756 18.3136 17.1808 18.5084C17.087 18.6094 17.0293 18.7465 17.0293 18.8836C17.0293 19.0207 17.087 19.1578 17.1808 19.2588C17.2818 19.3599 17.4189 19.4104 17.556 19.4104H17.5488Z" fill="#DC9171"/>
<path d="M12.8223 21.51C12.9594 21.51 13.0965 21.4523 13.1975 21.3585C13.2913 21.2574 13.349 21.1203 13.349 20.9832C13.349 20.8461 13.2913 20.709 13.1975 20.608C12.9954 20.4132 12.6491 20.4132 12.4543 20.608C12.3605 20.7018 12.3027 20.8389 12.3027 20.976C12.3027 21.1131 12.3605 21.2502 12.4543 21.3512C12.5553 21.445 12.6852 21.5028 12.8295 21.5028L12.8223 21.51Z" fill="#DC9171"/>
<path d="M15.1888 21.5095C15.4775 21.5095 15.7156 21.2714 15.7156 20.9828C15.7156 20.6942 15.4775 20.4561 15.1888 20.4561C14.9002 20.4561 14.6621 20.6942 14.6621 20.9828C14.6621 21.2714 14.9002 21.5095 15.1888 21.5095Z" fill="#DC9171"/>
<path d="M17.5488 21.5094C17.6859 21.5094 17.823 21.4517 17.924 21.3579C18.0178 21.2568 18.0756 21.1197 18.0756 20.9827C18.0756 20.8456 18.0178 20.7085 17.924 20.6147C17.7292 20.4126 17.3756 20.4198 17.1808 20.6147C17.087 20.7157 17.0293 20.8528 17.0293 20.9899C17.0293 21.127 17.087 21.2641 17.1808 21.3651C17.2818 21.4589 17.4117 21.5166 17.556 21.5166L17.5488 21.5094Z" fill="#DC9171"/>
</g>
<defs>
<clipPath id="clip0_2320_255">
<rect width="34.635" height="34" fill="white"/>
</clipPath>
</defs>
</svg>
