<svg width="28" height="29" viewBox="0 0 28 29" fill="none" xmlns="http://www.w3.org/2000/svg">
<rect y="0.850098" width="27.2" height="27.2" rx="13.6" fill="black"/>
<path d="M20.5578 12.8326C20.668 12.75 20.8332 12.8326 20.8332 12.9703V18.5883C20.8332 19.3318 20.2273 19.9102 19.5113 19.9102H8.05507C7.31151 19.9102 6.73319 19.3318 6.73319 18.5883V12.9703C6.73319 12.8326 6.87089 12.75 6.98104 12.8326C7.61444 13.3283 8.41307 13.9342 11.2221 15.9721C11.8004 16.3852 12.7918 17.2939 13.7832 17.2939C14.7471 17.2939 15.766 16.3852 16.3168 15.9721C19.1258 13.9342 19.9244 13.3283 20.5578 12.8326ZM13.7832 16.3852C13.1223 16.4127 12.2135 15.5865 11.7453 15.2561C8.08261 12.6123 7.80721 12.3645 6.98104 11.7035C6.81581 11.5934 6.73319 11.4006 6.73319 11.1803V10.657C6.73319 9.94102 7.31151 9.33516 8.05507 9.33516H19.5113C20.2273 9.33516 20.8332 9.94102 20.8332 10.657V11.1803C20.8332 11.4006 20.723 11.5934 20.5578 11.7035C19.7316 12.3645 19.4562 12.6123 15.7935 15.2561C15.3254 15.5865 14.4166 16.4127 13.7832 16.3852Z" fill="white"/>
</svg>
