<svg width="62" height="62" viewBox="0 0 62 62" fill="none" xmlns="http://www.w3.org/2000/svg">
<path d="M24.8052 54.3172V35.5261H17.6132C17.2398 35.5261 16.8817 35.3777 16.6176 35.1137C16.3536 34.8497 16.2053 34.4916 16.2053 34.1182V26.6859C16.2053 26.3125 16.3536 25.9544 16.6176 25.6904C16.8817 25.4263 17.2398 25.278 17.6132 25.278H24.7768V18.0834C24.6054 16.3772 24.8097 14.6543 25.3752 13.0355C25.9407 11.4167 26.8538 9.94131 28.0503 8.71303C29.2469 7.48474 30.6978 6.53332 32.3012 5.92559C33.9047 5.31785 35.6217 5.06853 37.3318 5.19516H43.3251C43.702 5.19442 44.0642 5.34189 44.3334 5.60577C44.6026 5.86964 44.7572 6.22876 44.764 6.60566V12.8987C44.7559 13.2749 44.6007 13.633 44.3318 13.8961C44.0628 14.1593 43.7014 14.3067 43.3251 14.3066H39.5793C35.5338 14.3066 34.7562 16.2234 34.7562 19.0418V25.2754H44.3739C44.5738 25.2688 44.7728 25.3058 44.9569 25.3838C45.141 25.4619 45.306 25.5791 45.4402 25.7274C45.5745 25.8756 45.6748 26.0514 45.7342 26.2423C45.7937 26.4333 45.8108 26.6349 45.7844 26.8332L44.9138 34.2938C44.8702 34.6355 44.7029 34.9494 44.4434 35.176C44.1839 35.4026 43.8504 35.5263 43.5059 35.5235H34.8156V54.3147C34.8205 54.6467 34.7586 54.9762 34.6338 55.2839C34.5089 55.5915 34.3235 55.871 34.0886 56.1057C33.8537 56.3403 33.5741 56.5254 33.2663 56.65C32.9585 56.7746 32.6288 56.836 32.2968 56.8308H27.2929C26.9635 56.8319 26.6372 56.7673 26.3331 56.6409C26.0289 56.5145 25.753 56.3287 25.5214 56.0945C25.2898 55.8602 25.1072 55.5822 24.9842 55.2766C24.8612 54.971 24.8004 54.6466 24.8052 54.3172Z" fill="#E3E3E6"/>
</svg>
