<svg width="62" height="62" viewBox="0 0 62 62" fill="none" xmlns="http://www.w3.org/2000/svg">
<path d="M33.6556 5.1665C36.5619 5.17425 38.037 5.18975 39.3105 5.22592L39.8117 5.244C40.3904 5.26467 40.9613 5.2905 41.651 5.3215C44.3997 5.45067 46.2752 5.88467 47.9208 6.52275C49.6258 7.17892 51.0621 8.06759 52.4985 9.50134C53.8126 10.7923 54.8291 12.3546 55.477 14.079C56.1151 15.7246 56.5491 17.6001 56.6783 20.3513C56.7093 21.0385 56.7351 21.6094 56.7558 22.1907L56.7713 22.6918C56.81 23.9628 56.8255 25.4379 56.8307 28.3442L56.8333 30.2713V33.6555C56.8396 35.5398 56.8198 37.4241 56.7739 39.3078L56.7584 39.809C56.7377 40.3903 56.7119 40.9612 56.6809 41.6483C56.5517 44.3996 56.1125 46.2725 55.477 47.9207C54.8291 49.6451 53.8126 51.2074 52.4985 52.4983C51.2075 53.8125 49.6452 54.829 47.9208 55.4769C46.2752 56.115 44.3997 56.549 41.651 56.6782L39.8117 56.7557L39.3105 56.7712C38.037 56.8073 36.5619 56.8254 33.6556 56.8306L31.7285 56.8332H28.3469C26.4617 56.8398 24.5766 56.82 22.692 56.7738L22.1908 56.7583C21.5775 56.735 20.9644 56.7083 20.3515 56.6782C17.6028 56.549 15.7273 56.115 14.0791 55.4769C12.3556 54.8287 10.7943 53.8122 9.50405 52.4983C8.18899 51.2076 7.17158 49.6454 6.52288 47.9207C5.8848 46.2751 5.4508 44.3996 5.32163 41.6483L5.24413 39.809L5.23121 39.3078C5.18359 37.4241 5.16206 35.5398 5.16663 33.6555V28.3442C5.15948 26.4599 5.17843 24.5756 5.22346 22.6918L5.24155 22.1907C5.26221 21.6094 5.28805 21.0385 5.31905 20.3513C5.44821 17.6001 5.88221 15.7272 6.5203 14.079C7.17051 12.3539 8.18971 10.7915 9.50663 9.50134C10.7961 8.18784 12.3565 7.17136 14.0791 6.52275C15.7273 5.88467 17.6002 5.45067 20.3515 5.3215C21.0386 5.2905 21.6121 5.26467 22.1908 5.244L22.692 5.2285C24.5757 5.18261 26.46 5.1628 28.3443 5.16909L33.6556 5.1665ZM31 18.0832C27.5742 18.0832 24.2888 19.444 21.8665 21.8664C19.4442 24.2887 18.0833 27.5741 18.0833 30.9998C18.0833 34.4256 19.4442 37.711 21.8665 40.1333C24.2888 42.5556 27.5742 43.9165 31 43.9165C34.4257 43.9165 37.7111 42.5556 40.1334 40.1333C42.5558 37.711 43.9166 34.4256 43.9166 30.9998C43.9166 27.5741 42.5558 24.2887 40.1334 21.8664C37.7111 19.444 34.4257 18.0832 31 18.0832ZM31 23.2498C32.0177 23.2497 33.0255 23.45 33.9659 23.8393C34.9062 24.2286 35.7606 24.7993 36.4804 25.5188C37.2002 26.2384 37.7712 27.0926 38.1608 28.0329C38.5505 28.9731 38.7511 29.9808 38.7513 30.9985C38.7514 32.0163 38.5511 33.0241 38.1618 33.9644C37.7725 34.9048 37.2018 35.7592 36.4822 36.479C35.7627 37.1988 34.9085 37.7698 33.9682 38.1594C33.028 38.549 32.0203 38.7497 31.0025 38.7498C28.9471 38.7498 26.9759 37.9333 25.5225 36.4799C24.0691 35.0265 23.2525 33.0553 23.2525 30.9998C23.2525 28.9444 24.0691 26.9732 25.5225 25.5198C26.9759 24.0664 28.9471 23.2498 31.0025 23.2498M44.565 14.2082C43.7086 14.2082 42.8873 14.5484 42.2817 15.154C41.6761 15.7596 41.3359 16.5809 41.3359 17.4373C41.3359 18.2938 41.6761 19.1151 42.2817 19.7207C42.8873 20.3263 43.7086 20.6665 44.565 20.6665C45.4215 20.6665 46.2428 20.3263 46.8484 19.7207C47.454 19.1151 47.7942 18.2938 47.7942 17.4373C47.7942 16.5809 47.454 15.7596 46.8484 15.154C46.2428 14.5484 45.4215 14.2082 44.565 14.2082Z" fill="#E3E3E6"/>
</svg>
