<svg width="27" height="26" viewBox="0 0 27 26" fill="none" xmlns="http://www.w3.org/2000/svg">
<g clip-path="url(#clip0_95_5926)">
<path d="M13.5749 2.26611C15.252 2.26611 16.347 2.27018 16.8599 2.27832C17.3728 2.28646 17.963 2.3068 18.6306 2.33936C19.2331 2.37191 19.7134 2.43294 20.0716 2.52246C20.4298 2.61198 20.7229 2.69743 20.9509 2.77881C21.244 2.89274 21.5004 3.02295 21.7202 3.16943C21.94 3.31592 22.1639 3.49496 22.3919 3.70654C22.6035 3.91813 22.7826 4.13786 22.9292 4.36572C23.0757 4.59359 23.206 4.854 23.32 5.14697C23.4014 5.35856 23.4869 5.64339 23.5764 6.00146C23.666 6.35954 23.727 6.84782 23.7596 7.46631C23.7759 8.11735 23.7922 8.70329 23.8084 9.22412C23.8247 9.74495 23.8329 10.8436 23.8329 12.52C23.8329 14.1802 23.8247 15.2707 23.8084 15.7915C23.7922 16.3123 23.7759 16.8983 23.7596 17.5493C23.727 18.1678 23.666 18.6561 23.5764 19.0142C23.4869 19.3722 23.4014 19.6571 23.32 19.8687C23.206 20.1616 23.0757 20.422 22.9292 20.6499C22.7826 20.8778 22.6035 21.0975 22.3919 21.3091C22.1639 21.5369 21.94 21.7241 21.7202 21.8706C21.5004 22.0171 21.244 22.1473 20.9509 22.2612C20.7229 22.3426 20.4298 22.4281 20.0716 22.5176C19.7134 22.6071 19.2331 22.66 18.6306 22.6763C17.963 22.7088 17.3728 22.7292 16.8599 22.7373C16.347 22.7454 15.252 22.7495 13.5749 22.7495C11.9141 22.7495 10.8232 22.7454 10.3021 22.7373C9.78108 22.7292 9.18677 22.7088 8.51919 22.6763C7.91673 22.66 7.4364 22.6071 7.07819 22.5176C6.71997 22.4281 6.42689 22.3426 6.19893 22.2612C5.92213 22.1473 5.66975 22.0171 5.44179 21.8706C5.21384 21.7241 4.99403 21.5369 4.78235 21.3091C4.5544 21.0975 4.36715 20.8778 4.22061 20.6499C4.07407 20.422 3.94381 20.1698 3.82983 19.8931C3.74842 19.6652 3.66293 19.3722 3.57338 19.0142C3.48383 18.6561 3.43091 18.1759 3.41462 17.5737C3.38206 16.9064 3.36171 16.3123 3.35357 15.7915C3.34542 15.2707 3.34135 14.1802 3.34135 12.52C3.34135 10.8436 3.34542 9.74495 3.35357 9.22412C3.36171 8.70329 3.38206 8.11735 3.41462 7.46631C3.43091 6.8641 3.48383 6.38395 3.57338 6.02588C3.66293 5.66781 3.74842 5.37484 3.82983 5.14697C3.94381 4.854 4.07407 4.59766 4.22061 4.37793C4.36715 4.1582 4.54626 3.93441 4.75793 3.70654C4.98589 3.49496 5.20977 3.31592 5.42958 3.16943C5.6494 3.02295 5.90585 2.89274 6.19893 2.77881C6.42689 2.69743 6.71997 2.61198 7.07819 2.52246C7.4364 2.43294 7.91673 2.37191 8.51919 2.33936C9.18677 2.3068 9.77701 2.28646 10.2899 2.27832C10.8028 2.27018 11.8978 2.26611 13.5749 2.26611ZM13.5749 0.0200195C11.8815 0.0200195 10.7662 0.0240879 10.2288 0.0322266C9.69152 0.0403652 9.08907 0.060709 8.42149 0.0932617C7.75391 0.125814 7.17995 0.190918 6.69962 0.288574C6.21928 0.38623 5.78373 0.516439 5.39295 0.679199C4.9696 0.841959 4.57882 1.03727 4.22061 1.26514C3.86239 1.493 3.51232 1.77783 3.17039 2.11963C2.82846 2.46143 2.54351 2.81136 2.31556 3.16943C2.0876 3.52751 1.89221 3.91813 1.72939 4.34131C1.56656 4.73193 1.4363 5.16732 1.33861 5.64746C1.24091 6.1276 1.17578 6.70133 1.14322 7.36865C1.11065 8.03597 1.0903 8.63818 1.08216 9.17529C1.07402 9.7124 1.06995 10.8273 1.06995 12.52C1.06995 14.2127 1.07402 15.3276 1.08216 15.8647C1.0903 16.4019 1.11065 17.0041 1.14322 17.6714C1.17578 18.3387 1.24091 18.9124 1.33861 19.3926C1.4363 19.8727 1.56656 20.3081 1.72939 20.6987C1.89221 21.1219 2.0876 21.5125 2.31556 21.8706C2.54351 22.2287 2.82846 22.5786 3.17039 22.9204C3.51232 23.2622 3.86239 23.547 4.22061 23.7749C4.57882 24.0028 4.9696 24.1981 5.39295 24.3608C5.78373 24.5073 6.21928 24.6335 6.69962 24.7393C7.17995 24.8451 7.75391 24.9142 8.42149 24.9468C9.08907 24.9793 9.69152 24.9997 10.2288 25.0078C10.7662 25.016 11.8815 25.02 13.5749 25.02C15.2683 25.02 16.3836 25.016 16.921 25.0078C17.4583 24.9997 18.0607 24.9793 18.7283 24.9468C19.3959 24.9142 19.9698 24.8451 20.4502 24.7393C20.9305 24.6335 21.3661 24.5073 21.7568 24.3608C22.1639 24.1981 22.5466 24.0028 22.9048 23.7749C23.263 23.547 23.6212 23.2622 23.9794 22.9204C24.3213 22.5786 24.6063 22.2287 24.8342 21.8706C25.0622 21.5125 25.2576 21.1219 25.4204 20.6987C25.567 20.3081 25.6931 19.8727 25.799 19.3926C25.9048 18.9124 25.9659 18.3387 25.9822 17.6714C26.0147 17.0041 26.0351 16.4019 26.0432 15.8647C26.0514 15.3276 26.0554 14.2127 26.0554 12.52C26.0554 10.8273 26.0514 9.7124 26.0432 9.17529C26.0351 8.63818 26.0147 8.03597 25.9822 7.36865C25.9659 6.70133 25.9048 6.1276 25.799 5.64746C25.6931 5.16732 25.567 4.73193 25.4204 4.34131C25.2576 3.93441 25.0622 3.54785 24.8342 3.18164C24.6063 2.81543 24.3213 2.46143 23.9794 2.11963C23.6375 1.77783 23.2874 1.493 22.9292 1.26514C22.571 1.03727 22.1802 0.841959 21.7568 0.679199C21.3661 0.532715 20.9305 0.406576 20.4502 0.300781C19.9698 0.194986 19.3959 0.125814 18.7283 0.0932617C18.0607 0.060709 17.4583 0.0403652 16.921 0.0322266C16.3836 0.0240879 15.2683 0.0200195 13.5749 0.0200195ZM13.5749 6.09912C12.6956 6.09912 11.8652 6.27002 11.0837 6.61182C10.3021 6.93734 9.61825 7.39307 9.03208 7.979C8.44591 8.56494 7.99 9.24854 7.66435 10.0298C7.32242 10.811 7.15146 11.6411 7.15146 12.52C7.15146 13.3989 7.32242 14.229 7.66435 15.0103C7.99 15.7915 8.44591 16.4751 9.03208 17.061C9.61825 17.647 10.3021 18.1027 11.0837 18.4282C11.8652 18.77 12.6956 18.9409 13.5749 18.9409C14.4542 18.9409 15.2846 18.77 16.0661 18.4282C16.8477 18.1027 17.5315 17.647 18.1177 17.061C18.7039 16.4751 19.1598 15.7915 19.4854 15.0103C19.8274 14.229 19.9983 13.3989 19.9983 12.52C19.9983 11.6411 19.8274 10.811 19.4854 10.0298C19.1598 9.24854 18.7039 8.56494 18.1177 7.979C17.5315 7.39307 16.8477 6.93734 16.0661 6.61182C15.2846 6.27002 14.4542 6.09912 13.5749 6.09912ZM13.5749 16.6948C12.4188 16.6948 11.4338 16.2879 10.6196 15.4741C9.8055 14.6603 9.39844 13.6756 9.39844 12.52C9.39844 11.3644 9.8055 10.3797 10.6196 9.56592C11.4338 8.75212 12.4188 8.34521 13.5749 8.34521C14.731 8.34521 15.716 8.75212 16.5302 9.56592C17.3443 10.3797 17.7514 11.3644 17.7514 12.52C17.7514 13.6756 17.3443 14.6603 16.5302 15.4741C15.716 16.2879 14.731 16.6948 13.5749 16.6948ZM21.7568 5.85498C21.7568 6.26188 21.6103 6.61182 21.3172 6.90479C21.0241 7.19775 20.6659 7.34424 20.2426 7.34424C19.8355 7.34424 19.4854 7.19775 19.1924 6.90479C18.8993 6.61182 18.7527 6.26188 18.7527 5.85498C18.7527 5.4318 18.8993 5.07373 19.1924 4.78076C19.4854 4.48779 19.8355 4.34131 20.2426 4.34131C20.6659 4.34131 21.0241 4.48779 21.3172 4.78076C21.6103 5.07373 21.7568 5.4318 21.7568 5.85498Z" fill="#BEBDBD"/>
</g>
<defs>
<clipPath id="clip0_95_5926">
<rect width="25.25" height="25" fill="white" transform="matrix(1 0 0 -1 0.949951 25.02)"/>
</clipPath>
</defs>
</svg>
