<svg width="27" height="26" viewBox="0 0 27 26" fill="none" xmlns="http://www.w3.org/2000/svg">
<g clip-path="url(#clip0_95_5935)">
<path d="M6.69409 2.87646C6.69409 3.60889 6.43774 4.23551 5.92505 4.75635C5.41235 5.27718 4.70841 5.5376 3.81323 5.5376C2.96688 5.5376 2.29142 5.27718 1.78687 4.75635C1.28231 4.23551 1.03003 3.60889 1.03003 2.87646C1.03003 2.11149 1.29045 1.47266 1.81128 0.959961C2.33211 0.447266 3.02384 0.190918 3.88647 0.190918C4.73283 0.190918 5.40828 0.447266 5.91284 0.959961C6.4174 1.47266 6.67782 2.11149 6.69409 2.87646ZM1.17651 24.8247V7.66162H6.52319V24.8247H1.17651ZM9.69702 13.1304C9.69702 12.0562 9.68481 11.0674 9.6604 10.1641C9.63599 9.26074 9.6075 8.4266 9.57495 7.66162H14.2136L14.4578 10.0542H14.5554C14.9135 9.48454 15.5279 8.87825 16.3987 8.23535C17.2694 7.59245 18.421 7.271 19.8533 7.271C20.7322 7.271 21.5541 7.41748 22.3191 7.71045C23.0678 8.00342 23.7148 8.45915 24.26 9.07764C24.8053 9.69613 25.2325 10.4692 25.5417 11.397C25.851 12.3247 26.0056 13.4233 26.0056 14.6929V24.8491H20.6833V15.3032C20.6833 14.1965 20.4718 13.3013 20.0486 12.6177C19.6254 11.9341 18.9337 11.5923 17.9734 11.5923C17.2247 11.5923 16.6265 11.8039 16.179 12.2271C15.7314 12.6502 15.4099 13.106 15.2146 13.5942C15.1495 13.7733 15.1047 13.9767 15.0803 14.2046C15.0559 14.4325 15.0437 14.6766 15.0437 14.937V24.8491H9.72144L9.69702 13.1304Z" fill="#BEBDBD"/>
</g>
<defs>
<clipPath id="clip0_95_5935">
<rect width="25.24" height="25" fill="white" transform="matrix(1 0 0 -1 0.910034 25.02)"/>
</clipPath>
</defs>
</svg>
