<svg width="35" height="27" viewBox="0 0 35 27" fill="none" xmlns="http://www.w3.org/2000/svg">
<g clip-path="url(#clip0_2320_200)">
<path d="M31.825 12.6001H3.02496C2.91673 12.5984 2.81352 12.5542 2.7376 12.477C2.66167 12.3999 2.61913 12.296 2.61914 12.1877V0.405904C2.61914 0.298275 2.6619 0.195053 2.738 0.118948C2.81411 0.0428419 2.91733 8.61504e-05 3.02496 8.61504e-05H5.64314C5.70688 -0.00124896 5.76998 0.0129516 5.827 0.0414613C5.88402 0.0699711 5.93324 0.111933 5.97041 0.163723L7.81623 2.61827H27.0402L28.8795 0.163723C28.9178 0.113102 28.9672 0.0719998 29.024 0.0436173C29.0808 0.0152348 29.1433 0.000337747 29.2068 8.61504e-05H31.825C31.9332 7.25138e-05 32.0371 0.0426182 32.1143 0.118541C32.1914 0.194465 32.2356 0.297677 32.2373 0.405904V12.1877C32.2373 12.2971 32.1939 12.402 32.1165 12.4793C32.0392 12.5566 31.9343 12.6001 31.825 12.6001ZM3.43732 11.7819H31.4191V0.818268H29.4162L27.5704 3.27281C27.5332 3.3246 27.484 3.36657 27.427 3.39507C27.37 3.42358 27.3069 3.43779 27.2431 3.43645H7.60678C7.54331 3.4362 7.48076 3.4213 7.424 3.39292C7.36723 3.36454 7.31778 3.32343 7.2795 3.27281L5.44023 0.818268H3.43732V11.7819Z" fill="#DC9171"/>
<path d="M34.4422 27.0004H31.1695C31.0938 27.0009 31.0195 26.9796 30.9556 26.939C30.8918 26.8983 30.841 26.8401 30.8095 26.7713L29.6116 24.3822H5.23636L4.04509 26.7713C4.01243 26.8406 3.9605 26.8991 3.8955 26.9397C3.8305 26.9803 3.75519 27.0014 3.67855 27.0004H0.405818C0.297591 26.9987 0.194378 26.9545 0.118455 26.8773C0.0425321 26.8002 -1.36334e-05 26.6962 3.27708e-09 26.588V17.4244C3.27708e-09 17.3167 0.0427557 17.2135 0.118861 17.1374C0.194967 17.0613 0.298189 17.0186 0.405818 17.0186H34.4422C34.5504 17.0185 34.6543 17.0611 34.7315 17.137C34.8086 17.2129 34.8528 17.3161 34.8545 17.4244V26.588C34.8545 26.6974 34.8111 26.8023 34.7338 26.8796C34.6564 26.9569 34.5516 27.0004 34.4422 27.0004ZM31.4182 26.1822H34.0364V17.8367H0.818182V26.1822H3.43636L4.63418 23.7931C4.66526 23.7253 4.71501 23.6677 4.7776 23.6272C4.84019 23.5866 4.91305 23.5647 4.98764 23.564H29.8604C29.937 23.563 30.0123 23.584 30.0773 23.6247C30.1423 23.6653 30.1943 23.7238 30.2269 23.7931L31.4182 26.1822Z" fill="#DC9171"/>
<path d="M33.1326 17.8368H1.71441C1.60618 17.8351 1.50297 17.7909 1.42705 17.7137C1.35113 17.6366 1.30858 17.5326 1.30859 17.4244V13.4971C1.31032 13.0428 1.49155 12.6077 1.81278 12.2864C2.13402 11.9652 2.56921 11.784 3.0235 11.7822H31.8235C32.2789 11.7822 32.7158 11.9627 33.0384 12.2841C33.3611 12.6055 33.5432 13.0417 33.545 13.4971V17.4244C33.545 17.5338 33.5015 17.6387 33.4242 17.716C33.3468 17.7933 33.242 17.8368 33.1326 17.8368ZM2.12678 17.0186H32.7268V13.4971C32.725 13.2587 32.6291 13.0306 32.4599 12.8627C32.2907 12.6947 32.0619 12.6004 31.8235 12.6004H3.0235C2.78621 12.6021 2.55911 12.6971 2.39131 12.8649C2.22352 13.0327 2.12849 13.2598 2.12678 13.4971V17.0186Z" fill="#DC9171"/>
<path d="M26.587 12.5999H17.4234C17.3152 12.5982 17.212 12.554 17.136 12.4769C17.0601 12.3997 17.0176 12.2958 17.0176 12.1876V11.533C17.0176 11.05 17.1127 10.5716 17.2976 10.1253C17.4825 9.67902 17.7534 9.2735 18.095 8.93191C18.4366 8.59033 18.8421 8.31937 19.2884 8.1345C19.7347 7.94964 20.2131 7.85449 20.6961 7.85449H23.9689C24.9451 7.85449 25.8814 8.24184 26.5723 8.93151C27.2632 9.62119 27.6522 10.5568 27.6539 11.533C27.6539 11.6731 27.6263 11.8119 27.5727 11.9413C27.5191 12.0708 27.4405 12.1884 27.3415 12.2875C27.2424 12.3865 27.1248 12.4651 26.9953 12.5187C26.8659 12.5724 26.7271 12.5999 26.587 12.5999ZM17.8358 11.7818H26.587C26.653 11.7818 26.7163 11.7556 26.7629 11.7089C26.8096 11.6623 26.8358 11.599 26.8358 11.533C26.834 10.7738 26.5312 10.0463 25.9938 9.51006C25.4563 8.97382 24.7281 8.67267 23.9689 8.67267H20.6961C19.9375 8.67267 19.21 8.97403 18.6735 9.51046C18.1371 10.0469 17.8358 10.7744 17.8358 11.533V11.7818Z" fill="#DC9171"/>
<path d="M17.4232 12.5999H8.25958C7.97776 12.5982 7.70806 12.485 7.50939 12.2852C7.31072 12.0853 7.19921 11.8149 7.19922 11.533C7.19922 10.5574 7.58678 9.62177 8.27664 8.93191C8.9665 8.24205 9.90215 7.85449 10.8778 7.85449H14.1505C15.1267 7.85449 16.063 8.24184 16.7539 8.93151C17.4448 9.62119 17.8338 10.5568 17.8356 11.533V12.1876C17.8356 12.2969 17.7921 12.4018 17.7148 12.4792C17.6375 12.5565 17.5326 12.5999 17.4232 12.5999ZM10.8778 8.67267C10.1191 8.67267 9.3916 8.97403 8.85518 9.51046C8.31876 10.0469 8.0174 10.7744 8.0174 11.533C8.01738 11.5979 8.04268 11.6602 8.08792 11.7066C8.13316 11.7531 8.19476 11.7801 8.25958 11.7818H17.0174V11.533C17.0157 10.7738 16.7129 10.0463 16.1754 9.51006C15.6379 8.97382 14.9097 8.67267 14.1505 8.67267H10.8778Z" fill="#DC9171"/>
</g>
<defs>
<clipPath id="clip0_2320_200">
<rect width="34.8545" height="27" fill="white"/>
</clipPath>
</defs>
</svg>
