<svg width="28" height="29" viewBox="0 0 28 29" fill="none" xmlns="http://www.w3.org/2000/svg">
<rect y="0.850098" width="27.2" height="27.2" rx="13.6" fill="black"/>
<path d="M13.2004 21.3973C9.17971 15.6141 8.46369 15.0082 8.46369 12.8602C8.46369 9.94102 10.8045 7.57266 13.7512 7.57266C16.6703 7.57266 19.0387 9.94102 19.0387 12.8602C19.0387 15.0082 18.2951 15.6141 14.2744 21.3973C14.0266 21.7828 13.4483 21.7828 13.2004 21.3973ZM13.7512 15.0633C14.9629 15.0633 15.9543 14.0994 15.9543 12.8602C15.9543 11.6484 14.9629 10.657 13.7512 10.657C12.5119 10.657 11.5481 11.6484 11.5481 12.8602C11.5481 14.0994 12.5119 15.0633 13.7512 15.0633Z" fill="white"/>
</svg>
