<svg width="93" height="93" viewBox="0 0 93 93" fill="none" xmlns="http://www.w3.org/2000/svg">
<g clip-path="url(#clip0_95_6012)">
<path d="M73.21 10.3L73.48 10.54V11.98L73.24 12.19C71.08 12.25 69.74 12.36 69.22 12.51C68.7 12.67 68.33 12.93 68.12 13.29C67.91 13.65 67.78 14.36 67.75 15.42C67.72 16.48 67.67 19.47 67.59 24.4V37.97C67.59 39.93 67.62 42.15 67.68 44.62C67.74 47.09 67.86 48.53 68.05 48.93C68.24 49.33 68.58 49.63 69.07 49.81C69.56 50 70.95 50.12 73.25 50.18L73.49 50.39V51.83L73.22 52.07C70.02 51.89 67.23 51.8 64.86 51.8C63.25 51.8 60.51 51.89 56.65 52.07L56.38 51.83V50.42L56.61 50.18C58.77 50.12 60.11 50.01 60.63 49.86C61.15 49.7 61.52 49.44 61.73 49.08C61.94 48.72 62.07 48 62.11 46.92C62.15 45.84 62.2 42.86 62.26 37.97V16.36L52.1 37.61C49.55 42.93 47.32 47.93 45.42 52.62H44.27C43.17 50.09 42.27 48.07 41.56 46.56L27.49 17.33V37.91C27.49 39.83 27.51 42.05 27.56 44.55C27.61 47.05 27.73 48.5 27.93 48.89C28.13 49.28 28.47 49.58 28.96 49.77C29.45 49.97 30.84 50.09 33.14 50.12L33.38 50.35V51.76L33.11 52.03L31.23 51.94C29.29 51.84 27.62 51.79 26.23 51.79C25.6 51.79 23.26 51.87 19.19 52.03L18.96 51.79V50.38L19.19 50.12C21.35 50.08 22.68 49.98 23.19 49.82C23.7 49.66 24.07 49.4 24.29 49.03C24.51 48.66 24.64 47.96 24.67 46.94C24.7 45.92 24.74 42.91 24.8 37.9V24.42C24.8 22.63 24.78 20.46 24.73 17.9C24.68 15.34 24.56 13.86 24.38 13.46C24.19 13.06 23.86 12.76 23.36 12.56C22.87 12.36 21.48 12.25 19.18 12.21L18.95 11.98V10.57L19.22 10.3C20.57 10.4 22.4 10.45 24.69 10.45C26.85 10.45 28.73 10.4 30.34 10.3C31.99 14.11 33.57 17.55 35.08 20.63L46.24 43.53L56.31 22.54C59.04 16.87 60.87 12.79 61.81 10.29C63.69 10.39 65.55 10.44 67.37 10.44C69.02 10.44 70.96 10.39 73.2 10.29" fill="white"/>
<path d="M18.27 62.55L18.33 62.6V62.93L18.28 62.98C17.79 62.99 17.49 63.02 17.37 63.05C17.25 63.09 17.17 63.15 17.12 63.23C17.07 63.31 17.04 63.47 17.04 63.71C17.04 63.95 17.02 64.63 17 65.75V68.83C17 69.28 17 69.78 17.02 70.34C17.03 70.9 17.06 71.23 17.1 71.32C17.14 71.41 17.22 71.48 17.33 71.52C17.44 71.56 17.76 71.59 18.28 71.6L18.33 71.65V71.98L18.27 72.03C17.55 71.99 16.91 71.97 16.37 71.97C16.01 71.97 15.39 71.99 14.51 72.03L14.45 71.98V71.66L14.5 71.61C14.99 71.6 15.29 71.57 15.41 71.54C15.53 71.5 15.61 71.44 15.66 71.36C15.71 71.28 15.74 71.11 15.75 70.87C15.75 70.63 15.77 69.95 15.78 68.84V63.94L13.48 68.76C12.9 69.97 12.4 71.1 11.96 72.16H11.7C11.45 71.59 11.25 71.13 11.09 70.78L7.9 64.16V68.82C7.9 69.26 7.9 69.76 7.92 70.32C7.93 70.89 7.96 71.22 8 71.3C8.04 71.39 8.12 71.45 8.23 71.5C8.34 71.54 8.66 71.57 9.18 71.58L9.23 71.63V71.95L9.17 72.01L8.74 71.99C8.3 71.97 7.92 71.96 7.61 71.96C7.47 71.96 6.94 71.98 6.01 72.01L5.96 71.96V71.64L6.01 71.58C6.5 71.58 6.8 71.55 6.92 71.51C7.04 71.47 7.12 71.41 7.17 71.33C7.22 71.25 7.25 71.09 7.26 70.86C7.26 70.63 7.28 69.95 7.29 68.81V65.75C7.29 65.35 7.29 64.85 7.27 64.27C7.26 63.69 7.23 63.35 7.19 63.26C7.15 63.17 7.07 63.1 6.96 63.06C6.85 63.01 6.53 62.99 6.01 62.98L5.96 62.93V62.61L6.02 62.55C6.33 62.57 6.74 62.58 7.26 62.58C7.75 62.58 8.18 62.57 8.54 62.55C8.91 63.41 9.27 64.19 9.61 64.89L12.14 70.08L14.42 65.32C15.04 64.03 15.45 63.11 15.67 62.54C16.1 62.56 16.52 62.57 16.93 62.57C17.3 62.57 17.74 62.56 18.25 62.54" fill="white"/>
<path d="M18.94 72.0099L18.88 71.9599V71.6099L18.94 71.5599C19.27 71.5599 19.47 71.5399 19.57 71.5099C19.66 71.4799 19.75 71.4199 19.82 71.3399C19.89 71.2499 20.04 70.9699 20.26 70.4899L20.96 68.9699L22.78 64.8599C23.12 64.0499 23.46 63.2499 23.8 62.4399H24.23L27.08 69.1399L27.46 70.0299C27.57 70.2799 27.7 70.5599 27.84 70.8599C27.98 71.1599 28.08 71.3299 28.14 71.3899C28.2 71.4399 28.26 71.4899 28.35 71.5099C28.43 71.5399 28.62 71.5599 28.9 71.5599L28.95 71.6099V71.9599L28.9 72.0099C28.43 71.9699 28 71.9499 27.63 71.9499C26.89 71.9699 26.15 71.9899 25.41 72.0099L25.36 71.9599V71.6099L25.41 71.5599C25.91 71.5599 26.22 71.5299 26.34 71.4999C26.46 71.4699 26.53 71.3899 26.53 71.2699C26.53 71.1699 26.5 71.0399 26.44 70.8799L25.62 68.8399H21.76L21.03 70.5499C20.9 70.8599 20.84 71.0799 20.84 71.2199C20.84 71.3299 20.9 71.4099 21.02 71.4699C21.14 71.5199 21.44 71.5499 21.93 71.5599L21.99 71.6099V71.9599L21.94 72.0099C21.37 71.9699 20.86 71.9599 20.43 71.9599C19.94 71.9599 19.45 71.9799 18.95 72.0099M21.98 68.2699H25.36L23.69 64.2499L21.99 68.2699H21.98Z" fill="white"/>
<path d="M29.71 72.0001L29.65 71.9401V71.6301L29.71 71.5801C29.98 71.5801 30.2 71.5601 30.36 71.5301C30.52 71.5001 30.63 71.4601 30.67 71.4001C30.72 71.3401 30.75 71.2401 30.76 71.1001C30.78 70.9601 30.79 70.6501 30.81 70.1701C30.83 69.6801 30.83 69.3401 30.83 69.1301V63.7401C30.83 63.5101 30.79 63.3501 30.71 63.2401C30.63 63.1301 30.52 63.0601 30.37 63.0301C30.23 63.0001 29.98 62.9801 29.64 62.9801L29.59 62.9301V62.6201L29.64 62.5601C30.25 62.5801 30.66 62.5901 30.85 62.5901C31.3 62.5901 31.67 62.5801 31.96 62.5601L34.09 65.3201L37.22 69.2401C37.6 69.7201 37.98 70.1701 38.38 70.5901V65.4301C38.38 65.2701 38.38 64.9301 38.36 64.4101C38.34 63.8901 38.33 63.5601 38.3 63.4201C38.28 63.2801 38.24 63.1901 38.18 63.1401C38.12 63.0901 38.02 63.0501 37.87 63.0301C37.72 63.0101 37.51 62.9901 37.25 62.9901L37.2 62.9401V62.6301L37.25 62.5701C37.61 62.5901 38.12 62.6001 38.79 62.6001C39.4 62.6001 39.84 62.5901 40.12 62.5701L40.18 62.6301V62.9401L40.13 62.9901C39.84 62.9901 39.61 63.0101 39.45 63.0401C39.29 63.0701 39.19 63.1201 39.15 63.1801C39.11 63.2501 39.08 63.3501 39.07 63.4701C39.05 63.6001 39.04 63.9101 39.02 64.3901C39 64.8801 39 65.2201 39 65.4401V70.4401C39.01 71.0401 39.02 71.6401 39.03 72.2501C38.81 72.1701 38.42 72.0801 37.88 71.9701L37.41 71.4101L35.99 69.6701L31.47 64.0201V69.1401C31.47 69.3501 31.47 69.7101 31.49 70.2301C31.51 70.7601 31.53 71.0701 31.55 71.1901C31.57 71.3101 31.6 71.3801 31.64 71.4201C31.68 71.4601 31.75 71.5001 31.87 71.5401C31.99 71.5801 32.23 71.6001 32.6 71.6001L32.65 71.6501V71.9601L32.6 72.0101C32.37 71.9801 32 71.9601 31.48 71.9601C30.82 71.9601 30.24 71.9801 29.74 72.0101" fill="white"/>
<path d="M40.83 62.57L40.88 62.52C41.65 62.56 42.17 62.57 42.45 62.57L45.57 62.5C46.46 62.5 47.19 62.58 47.76 62.75C48.33 62.92 48.84 63.21 49.28 63.62C49.72 64.03 50.06 64.51 50.29 65.05C50.52 65.59 50.63 66.18 50.63 66.79C50.63 67.4 50.52 67.99 50.32 68.57C50.12 69.15 49.81 69.68 49.43 70.15C49.05 70.61 48.61 70.99 48.12 71.27C47.63 71.56 47.14 71.75 46.64 71.84C46.15 71.93 45.64 71.98 45.12 71.98C44.77 71.98 44.12 71.97 43.16 71.94C42.84 71.94 42.63 71.93 42.53 71.93C42.22 71.93 41.85 71.95 41.42 71.98L41.37 71.93V71.71L41.42 71.64C41.68 71.51 41.83 71.42 41.87 71.39C41.91 71.36 41.94 70.97 41.96 70.22C41.98 69.48 42 68.91 42 68.52V64.56C42 64.23 41.99 63.96 41.98 63.76C41.98 63.55 41.96 63.4 41.93 63.32C41.91 63.23 41.88 63.17 41.85 63.13C41.82 63.09 41.77 63.06 41.71 63.04C41.64 63.02 41.54 62.99 41.38 62.98L40.87 62.94L40.82 62.89V62.56L40.83 62.57ZM43.3 71.28C43.75 71.37 44.28 71.41 44.87 71.41C45.91 71.41 46.73 71.24 47.36 70.89C47.98 70.54 48.44 70.03 48.75 69.35C49.06 68.67 49.21 67.9 49.21 67.05C49.21 65.79 48.87 64.81 48.2 64.12C47.53 63.43 46.47 63.08 45.02 63.08C44.42 63.08 43.85 63.12 43.3 63.21C43.26 63.94 43.25 64.76 43.25 65.68V69.74C43.26 70.12 43.28 70.64 43.3 71.28Z" fill="white"/>
<path d="M51.5 72.0099L51.44 71.9599V71.6099L51.5 71.5599C51.83 71.5599 52.03 71.5399 52.13 71.5099C52.22 71.4799 52.31 71.4199 52.38 71.3399C52.45 71.2499 52.6 70.9699 52.82 70.4899L53.52 68.9699L55.34 64.8599C55.68 64.0499 56.02 63.2499 56.36 62.4399H56.79L59.64 69.1399L60.02 70.0299C60.13 70.2799 60.26 70.5599 60.4 70.8599C60.54 71.1599 60.64 71.3299 60.7 71.3899C60.76 71.4399 60.82 71.4899 60.91 71.5099C60.99 71.5399 61.18 71.5599 61.46 71.5599L61.51 71.6099V71.9599L61.46 72.0099C60.99 71.9699 60.56 71.9499 60.19 71.9499C59.45 71.9699 58.71 71.9899 57.97 72.0099L57.92 71.9599V71.6099L57.97 71.5599C58.47 71.5599 58.78 71.5299 58.9 71.4999C59.02 71.4699 59.09 71.3899 59.09 71.2699C59.09 71.1699 59.06 71.0399 59 70.8799L58.18 68.8399H54.32L53.59 70.5499C53.46 70.8599 53.4 71.0799 53.4 71.2199C53.4 71.3299 53.46 71.4099 53.58 71.4699C53.7 71.5199 54 71.5499 54.49 71.5599L54.55 71.6099V71.9599L54.5 72.0099C53.93 71.9699 53.42 71.9599 52.99 71.9599C52.5 71.9599 52.01 71.9799 51.51 72.0099M54.54 68.2699H57.92L56.25 64.2499L54.55 68.2699H54.54Z" fill="white"/>
<path d="M62.11 62.57L62.16 62.52C62.97 62.56 63.61 62.57 64.06 62.57C64.56 62.57 65.24 62.55 66.09 62.52C66.41 62.52 66.63 62.51 66.78 62.51C67.91 62.51 68.67 62.71 69.07 63.12C69.47 63.53 69.67 64.01 69.67 64.58C69.67 64.95 69.57 65.32 69.38 65.68C69.18 66.04 68.9 66.35 68.51 66.6C68.13 66.86 67.6 67.05 66.93 67.18C67.05 67.35 67.28 67.65 67.6 68.08L68.55 69.34C68.86 69.75 69.19 70.19 69.54 70.65C69.89 71.11 70.12 71.37 70.22 71.43C70.32 71.49 70.41 71.53 70.48 71.54C70.55 71.55 70.67 71.56 70.83 71.56L70.88 71.61V71.92L70.82 71.98C70.61 71.95 70.35 71.94 70.06 71.94C69.74 71.94 69.4 71.95 69.03 71.98C68.72 71.61 68.24 70.96 67.58 70.04C66.81 68.97 66.03 67.98 65.23 67.07L65.3 66.86C65.53 66.87 65.71 66.88 65.84 66.88C66.61 66.88 67.21 66.7 67.65 66.33C68.09 65.96 68.3 65.45 68.3 64.79C68.3 64.2 68.1 63.76 67.71 63.46C67.32 63.16 66.79 63.01 66.12 63.01C65.65 63.01 65.21 63.07 64.8 63.2C64.73 63.3 64.7 64.13 64.7 65.7V70.09C64.71 70.59 64.73 70.92 64.75 71.06C64.77 71.21 64.8 71.3 64.85 71.35C64.89 71.4 64.97 71.44 65.09 71.47C65.21 71.5 65.51 71.53 65.98 71.55L66.03 71.59V71.92L65.98 71.97C65.98 71.97 65.57 71.96 64.81 71.93C64.49 71.93 64.25 71.92 64.07 71.92C63.93 71.92 63.3 71.94 62.16 71.97L62.11 71.92V71.59L62.16 71.55C62.57 71.53 62.85 71.51 62.99 71.48C63.13 71.45 63.22 71.42 63.27 71.38C63.32 71.34 63.35 71.25 63.38 71.11C63.41 70.97 63.43 70.67 63.43 70.19V68.78V65.69V64.39C63.41 63.88 63.4 63.56 63.38 63.41C63.36 63.26 63.33 63.17 63.29 63.12C63.25 63.07 63.17 63.03 63.05 63C62.93 62.97 62.63 62.94 62.16 62.93L62.11 62.88V62.55V62.57Z" fill="white"/>
<path d="M71.36 62.53L72.19 62.56C72.74 62.58 73.1 62.59 73.26 62.59C73.41 62.59 74.05 62.57 75.17 62.54L75.22 62.59V62.92L75.17 62.97C74.86 62.97 74.63 62.99 74.46 63.01C74.29 63.03 74.17 63.06 74.1 63.11C74.02 63.16 73.97 63.27 73.95 63.45C73.92 63.63 73.91 63.88 73.91 64.2V65.74L73.9 68.83V70.13C73.91 70.63 73.92 70.96 73.95 71.1C73.97 71.25 74 71.34 74.05 71.39C74.09 71.44 74.17 71.48 74.29 71.51C74.41 71.54 74.71 71.57 75.18 71.59L75.23 71.63V71.96L75.18 72.01C75.18 72.01 74.77 72 74.01 71.97C73.69 71.97 73.45 71.96 73.27 71.96C73.13 71.96 72.5 71.98 71.36 72.01L71.31 71.96V71.63L71.36 71.59C71.77 71.57 72.05 71.55 72.19 71.52C72.33 71.49 72.42 71.46 72.47 71.42C72.52 71.38 72.56 71.29 72.58 71.15C72.6 71.01 72.62 70.7 72.63 70.23V68.82V65.73V64.43C72.61 63.92 72.6 63.6 72.58 63.45C72.56 63.3 72.53 63.21 72.49 63.16C72.45 63.11 72.37 63.07 72.25 63.04C72.13 63.01 71.83 62.99 71.36 62.97L71.31 62.92V62.59L71.36 62.54V62.53Z" fill="white"/>
<path d="M76.01 72.0001L75.95 71.9401V71.6301L76.01 71.5801C76.28 71.5801 76.5 71.5601 76.66 71.5301C76.82 71.5001 76.93 71.4601 76.97 71.4001C77.02 71.3401 77.05 71.2401 77.06 71.1001C77.08 70.9601 77.09 70.6501 77.11 70.1701C77.13 69.6801 77.13 69.3401 77.13 69.1301V63.7401C77.13 63.5101 77.09 63.3501 77.01 63.2401C76.93 63.1301 76.82 63.0601 76.67 63.0301C76.53 63.0001 76.28 62.9801 75.94 62.9801L75.89 62.9301V62.6201L75.94 62.5601C76.55 62.5801 76.96 62.5901 77.15 62.5901C77.6 62.5901 77.97 62.5801 78.26 62.5601L80.39 65.3201L83.52 69.2401C83.9 69.7201 84.28 70.1701 84.68 70.5901V65.4301C84.68 65.2701 84.68 64.9301 84.66 64.4101C84.65 63.8901 84.63 63.5601 84.6 63.4201C84.58 63.2801 84.54 63.1901 84.48 63.1401C84.42 63.0901 84.32 63.0501 84.17 63.0301C84.02 63.0101 83.81 62.9901 83.55 62.9901L83.5 62.9401V62.6301L83.55 62.5701C83.91 62.5901 84.42 62.6001 85.09 62.6001C85.7 62.6001 86.14 62.5901 86.42 62.5701L86.48 62.6301V62.9401L86.43 62.9901C86.14 62.9901 85.91 63.0101 85.75 63.0401C85.59 63.0701 85.49 63.1201 85.45 63.1801C85.41 63.2501 85.38 63.3501 85.37 63.4701C85.35 63.6001 85.34 63.9101 85.32 64.3901C85.3 64.8801 85.3 65.2201 85.3 65.4401V70.4401C85.31 71.0401 85.32 71.6401 85.33 72.2501C85.11 72.1701 84.72 72.0801 84.18 71.9701L83.71 71.4101L82.29 69.6701L77.77 64.0201V69.1401C77.77 69.3501 77.77 69.7101 77.79 70.2301C77.81 70.7601 77.83 71.0701 77.85 71.1901C77.87 71.3101 77.9 71.3801 77.94 71.4201C77.98 71.4601 78.05 71.5001 78.17 71.5401C78.29 71.5801 78.53 71.6001 78.9 71.6001L78.95 71.6501V71.9601L78.9 72.0101C78.67 71.9801 78.3 71.9601 77.78 71.9601C77.12 71.9601 76.54 71.9801 76.04 72.0101" fill="white"/>
<path d="M86.41 59.25H6.03V60.05H86.41V59.25Z" fill="white"/>
<path d="M86.41 74.53H6.03V75.33H86.41V74.53Z" fill="white"/>
<path d="M27.1 80.68C27.29 80.91 27.39 81.18 27.39 81.49C27.39 81.74 27.33 81.97 27.2 82.17C27.07 82.37 26.89 82.53 26.65 82.65C26.41 82.77 26.12 82.82 25.78 82.82H24.06V77.85H25.73C26.23 77.85 26.62 77.97 26.88 78.2C27.14 78.43 27.28 78.73 27.28 79.1C27.28 79.41 27.2 79.66 27.03 79.85C26.86 80.04 26.65 80.18 26.39 80.25C26.67 80.3 26.91 80.45 27.1 80.68ZM24.56 80.05H25.72C26.06 80.05 26.32 79.97 26.5 79.81C26.68 79.65 26.77 79.43 26.77 79.15C26.77 78.87 26.68 78.66 26.5 78.5C26.32 78.34 26.05 78.27 25.7 78.27H24.56V80.05ZM26.59 82.14C26.79 81.97 26.89 81.73 26.89 81.44C26.89 81.15 26.79 80.9 26.57 80.72C26.36 80.54 26.08 80.45 25.72 80.45H24.55V82.39H25.74C26.1 82.39 26.38 82.3 26.58 82.13" fill="white"/>
<path d="M29.29 82.5501C28.91 82.3401 28.62 82.0301 28.4 81.6501C28.18 81.2601 28.08 80.8201 28.08 80.3401C28.08 79.8601 28.19 79.4101 28.4 79.0301C28.61 78.6501 28.91 78.3401 29.29 78.1301C29.67 77.9101 30.08 77.8101 30.54 77.8101C31 77.8101 31.42 77.9201 31.8 78.1301C32.18 78.3501 32.47 78.6501 32.68 79.0301C32.89 79.4201 33 79.8501 33 80.3401C33 80.8301 32.89 81.2701 32.68 81.6501C32.47 82.0401 32.17 82.3401 31.8 82.5501C31.42 82.7701 31.01 82.8701 30.54 82.8701C30.07 82.8701 29.66 82.7601 29.29 82.5501ZM31.54 82.1801C31.83 82.0101 32.07 81.7601 32.24 81.4401C32.41 81.1201 32.5 80.7501 32.5 80.3301C32.5 79.9101 32.41 79.5401 32.24 79.2201C32.07 78.9001 31.84 78.6601 31.54 78.4901C31.25 78.3201 30.91 78.2301 30.54 78.2301C30.17 78.2301 29.84 78.3101 29.54 78.4901C29.25 78.6601 29.01 78.9001 28.84 79.2201C28.67 79.5401 28.58 79.9101 28.58 80.3301C28.58 80.7501 28.66 81.1201 28.84 81.4401C29.01 81.7601 29.24 82.0101 29.54 82.1801C29.84 82.3501 30.17 82.4401 30.54 82.4401C30.91 82.4401 31.24 82.3501 31.54 82.1801Z" fill="white"/>
<path d="M34.4 77.85V80.98C34.4 81.47 34.52 81.84 34.75 82.08C34.98 82.32 35.31 82.44 35.71 82.44C36.11 82.44 36.44 82.32 36.67 82.09C36.9 81.86 37.02 81.49 37.02 80.99V77.86H37.52V80.98C37.52 81.61 37.35 82.09 37.02 82.4C36.69 82.72 36.25 82.88 35.71 82.88C35.17 82.88 34.74 82.72 34.41 82.4C34.07 82.08 33.91 81.61 33.91 80.98V77.86H34.41L34.4 77.85Z" fill="white"/>
<path d="M41.53 77.85V78.26H40.15V82.82H39.65V78.26H38.27V77.85H41.53Z" fill="white"/>
<path d="M42.82 77.85H42.32V82.82H42.82V77.85Z" fill="white"/>
<path d="M48.06 83.7999L46.95 82.7699C46.71 82.8399 46.45 82.8799 46.19 82.8799C45.73 82.8799 45.31 82.7699 44.94 82.5599C44.57 82.3399 44.27 82.04 44.05 81.66C43.83 81.27 43.73 80.8399 43.73 80.3499C43.73 79.8599 43.84 79.4199 44.05 79.0399C44.27 78.6499 44.56 78.3499 44.94 78.1399C45.32 77.9199 45.73 77.8199 46.19 77.8199C46.65 77.8199 47.08 77.9299 47.45 78.1399C47.83 78.3499 48.12 78.6599 48.33 79.0399C48.54 79.4299 48.65 79.8699 48.65 80.3499C48.65 80.8299 48.54 81.2999 48.31 81.6899C48.09 82.0799 47.78 82.3799 47.39 82.5899L48.72 83.8099H48.05L48.06 83.7999ZM44.49 81.4399C44.66 81.7599 44.89 82.0099 45.19 82.1799C45.48 82.3499 45.82 82.4399 46.19 82.4399C46.56 82.4399 46.89 82.3499 47.19 82.1799C47.48 82.0099 47.72 81.7599 47.89 81.4399C48.06 81.1199 48.15 80.7499 48.15 80.3299C48.15 79.9099 48.06 79.5399 47.89 79.2199C47.72 78.8999 47.49 78.6599 47.19 78.4899C46.89 78.3199 46.56 78.2299 46.19 78.2299C45.82 78.2299 45.49 78.3199 45.19 78.4899C44.9 78.6599 44.66 78.9099 44.49 79.2199C44.32 79.5299 44.23 79.9099 44.23 80.3299C44.23 80.7499 44.31 81.1199 44.49 81.4399Z" fill="white"/>
<path d="M55.21 77.85V82.82H54.71V80.49H52.02V82.82H51.52V77.85H52.02V80.08H54.71V77.85H55.21Z" fill="white"/>
<path d="M57.07 82.63C56.78 82.47 56.55 82.23 56.38 81.93C56.21 81.63 56.13 81.28 56.13 80.87C56.13 80.46 56.22 80.11 56.39 79.81C56.56 79.51 56.79 79.28 57.09 79.11C57.38 78.95 57.71 78.86 58.08 78.86C58.45 78.86 58.78 78.94 59.07 79.11C59.37 79.27 59.6 79.51 59.77 79.81C59.94 80.11 60.02 80.46 60.02 80.87C60.02 81.28 59.93 81.62 59.76 81.92C59.59 82.22 59.35 82.46 59.06 82.62C58.76 82.78 58.43 82.86 58.06 82.86C57.69 82.86 57.37 82.78 57.07 82.62M58.76 82.27C58.98 82.15 59.16 81.98 59.29 81.74C59.42 81.51 59.49 81.22 59.49 80.88C59.49 80.54 59.42 80.25 59.29 80.01C59.16 79.78 58.98 79.6 58.76 79.48C58.54 79.36 58.3 79.31 58.05 79.31C57.8 79.31 57.56 79.37 57.34 79.48C57.12 79.6 56.95 79.77 56.82 80.01C56.69 80.25 56.62 80.53 56.62 80.88C56.62 81.23 56.69 81.51 56.82 81.74C56.95 81.97 57.12 82.15 57.34 82.27C57.56 82.39 57.79 82.44 58.05 82.44C58.31 82.44 58.54 82.38 58.76 82.27Z" fill="white"/>
<path d="M61.57 79.35V81.76C61.57 82 61.61 82.16 61.71 82.25C61.8 82.34 61.96 82.38 62.19 82.38H62.65V82.81H62.12C61.77 82.81 61.51 82.73 61.34 82.56C61.17 82.4 61.08 82.13 61.08 81.75V79.34H60.54V78.92H61.08V77.95H61.59V78.92H62.66V79.34H61.59L61.57 79.35Z" fill="white"/>
<path d="M66.95 81.07H63.73C63.74 81.36 63.81 81.62 63.94 81.82C64.07 82.03 64.24 82.19 64.44 82.29C64.65 82.4 64.88 82.45 65.12 82.45C65.44 82.45 65.71 82.37 65.93 82.22C66.15 82.06 66.3 81.85 66.37 81.59H66.9C66.8 81.97 66.6 82.28 66.29 82.52C65.98 82.76 65.59 82.88 65.12 82.88C64.75 82.88 64.43 82.8 64.14 82.64C63.85 82.48 63.62 82.24 63.46 81.94C63.3 81.64 63.21 81.29 63.21 80.88C63.21 80.47 63.29 80.12 63.45 79.82C63.61 79.52 63.84 79.28 64.13 79.12C64.42 78.96 64.75 78.88 65.12 78.88C65.49 78.88 65.81 78.96 66.09 79.12C66.37 79.28 66.58 79.5 66.73 79.77C66.88 80.04 66.95 80.35 66.95 80.68C66.95 80.85 66.95 80.98 66.93 81.07M66.29 79.92C66.17 79.72 66 79.56 65.8 79.46C65.59 79.36 65.36 79.3 65.12 79.3C64.75 79.3 64.43 79.42 64.17 79.66C63.91 79.9 63.76 80.23 63.74 80.66H66.47C66.47 80.37 66.42 80.12 66.3 79.92" fill="white"/>
<path d="M68.38 77.55H67.88V82.82H68.38V77.55Z" fill="white"/>
<path d="M92.44 92.44H0V0H92.44V92.44ZM0.8 91.64H91.63V0.8H0.8V91.63V91.64Z" fill="white"/>
</g>
<defs>
<clipPath id="clip0_95_6012">
<rect width="92.44" height="92.44" fill="white"/>
</clipPath>
</defs>
</svg>
