<svg width="36" height="32" viewBox="0 0 36 32" fill="none" xmlns="http://www.w3.org/2000/svg">
<g clip-path="url(#clip0_2320_275)">
<path d="M33.7461 0.357738C32.9206 -0.124454 31.9269 -0.124454 31.0941 0.357738L27.9087 2.17692C27.3973 2.46915 27.01 2.91482 26.7836 3.44084C26.3087 2.99518 25.6731 2.71756 24.9717 2.71756H2.65936C1.19087 2.71756 0 3.90842 0 5.37692V26.6299C0 28.0911 1.19087 29.2892 2.65936 29.2892H24.9717C25.6731 29.2892 26.3087 29.0116 26.7836 28.566C27.01 29.092 27.3973 29.5376 27.9087 29.8299L31.0941 31.6491C31.5105 31.8829 31.9562 31.9997 32.4091 31.9997C32.8621 31.9997 33.3224 31.8755 33.7461 31.6345C34.5717 31.1523 35.0685 30.2975 35.0685 29.3331V2.65911C35.0685 1.70203 34.5717 0.839929 33.7461 0.357738ZM24.9717 28.2226H2.65936C1.78265 28.2226 1.06667 27.5066 1.06667 26.6299V5.37692C1.06667 4.5002 1.78265 3.78422 2.65936 3.78422H24.9717C25.8484 3.78422 26.5644 4.5002 26.5644 5.37692V26.6299C26.5644 27.5066 25.8484 28.2226 24.9717 28.2226ZM34.0091 29.3404C34.0091 29.9176 33.7096 30.429 33.2128 30.7212C32.716 31.0134 32.1242 31.0134 31.6201 30.7212L28.4347 28.902C27.9379 28.6171 27.6311 28.0911 27.6311 27.5139V4.48559C27.6311 3.91573 27.9379 3.3824 28.4347 3.10477L31.6201 1.28559C31.8685 1.14678 32.1388 1.07372 32.4091 1.07372C32.6795 1.07372 32.9571 1.14678 33.2055 1.2929C33.7023 1.57783 34.0018 2.09655 34.0018 2.67372V29.355L34.0091 29.3404Z" fill="#DC9171"/>
<path d="M24.3075 25.5634H22.8902V16.2703C22.8902 14.6995 21.9696 13.2822 20.5596 12.6246V10.4913H20.6399C20.9322 10.4913 21.1733 10.2575 21.1733 9.95796V7.57622C21.1733 7.28399 20.9322 7.04289 20.6399 7.04289H17.0819C16.7897 7.04289 16.5486 7.28399 16.5486 7.57622V9.95796C16.5486 10.2502 16.7897 10.4913 17.0819 10.4913H17.1623V12.6246C15.7596 13.2822 14.839 14.6995 14.839 16.2703V25.5634H12.7934V14.6776C12.7934 13.1068 11.8728 11.6895 10.4701 11.0319V8.8986H10.5504C10.8427 8.8986 11.0838 8.6575 11.0838 8.36526V5.98353C11.0838 5.69129 10.8427 5.4502 10.5504 5.4502H6.99244C6.7002 5.4502 6.4591 5.69129 6.4591 5.98353V8.36526C6.4591 8.6575 6.7002 8.8986 6.99244 8.8986H7.0728V11.0319C5.67006 11.6895 4.74951 13.1068 4.74951 14.6776V25.5634H3.33216C3.03992 25.5634 2.79883 25.7972 2.79883 26.0968C2.79883 26.3963 3.03992 26.6301 3.33216 26.6301H24.3221C24.6144 26.6301 24.8555 26.389 24.8555 26.0968C24.8555 25.8045 24.6144 25.5634 24.3221 25.5634H24.3075ZM7.51846 6.51686H10.0171V7.83924H7.51846V6.51686ZM7.77417 11.8867C7.98604 11.8137 8.12486 11.6091 8.12486 11.3826V8.89129H9.39609V11.3826C9.39609 11.6091 9.5349 11.8064 9.74677 11.8867C10.9303 12.3032 11.7194 13.4283 11.7194 14.6776V25.4831H5.80157V22.9844H7.94951C8.24175 22.9844 8.48285 22.7433 8.48285 22.4511V16.6575C8.48285 16.3653 8.24175 16.1242 7.94951 16.1242H5.80157V14.6776C5.80157 13.4283 6.59792 12.3105 7.77417 11.8867ZM5.80157 17.1835H7.41618V21.9178H5.80157V17.1835ZM17.6153 8.10956H20.1139V9.43193H17.6153V8.10956ZM15.8984 17.7169H19.4198V21.5452H15.8984V17.7169ZM15.8984 25.5634V22.6045H19.9459C20.2381 22.6045 20.4792 22.3634 20.4792 22.0712V17.1835C20.4792 16.8913 20.2381 16.6502 19.9459 16.6502H15.8984V16.2703C15.8984 15.021 16.6874 13.8959 17.871 13.4794C18.0828 13.4064 18.2217 13.2018 18.2217 12.9753V10.4913H19.4929V12.9753C19.4929 13.2018 19.6317 13.3991 19.8436 13.4794C21.0271 13.8959 21.8162 15.021 21.8162 16.2703V25.5634H15.8911H15.8984Z" fill="#DC9171"/>
</g>
<defs>
<clipPath id="clip0_2320_275">
<rect width="35.0685" height="32" fill="white"/>
</clipPath>
</defs>
</svg>
