<svg width="51" height="30" viewBox="0 0 51 30" fill="none" xmlns="http://www.w3.org/2000/svg">
<g clip-path="url(#clip0_2320_118)">
<mask id="mask0_2320_118" style="mask-type:luminance" maskUnits="userSpaceOnUse" x="0" y="0" width="51" height="30">
<path d="M50.5 0.739258H0.5V29.2612H50.5V0.739258Z" fill="white"/>
</mask>
<g mask="url(#mask0_2320_118)">
<path d="M48.3838 21.7555H14.781C12.895 21.7555 11.1244 20.7932 10.1236 19.2151L8.89189 17.2905L0.924223 5.35825C0.192891 4.242 0.462329 2.74085 1.61706 1.97103L2.88727 1.12422C3.96502 0.392889 5.50467 0.700818 6.236 1.81706L13.9342 13.4029C14.7425 14.6346 16.1282 15.3659 17.6294 15.3659H48.4223C49.577 15.3659 50.5393 16.2897 50.5393 17.483V19.677C50.5008 20.8317 49.577 21.7555 48.3838 21.7555ZM4.19597 1.89404C3.96502 1.89404 3.69559 1.97103 3.50313 2.0865L2.23292 2.9333C1.65556 3.31822 1.4631 4.12653 1.8865 4.74239L9.85417 16.7131L11.1244 18.6377C11.9327 19.9079 13.3184 20.6392 14.8195 20.6392H48.4223C48.9612 20.6392 49.3846 20.2158 49.3846 19.677V17.483C49.3846 16.9441 48.9612 16.5207 48.4223 16.5207H17.6294C15.7818 16.5207 14.0112 15.5969 13.0104 14.0188L5.31221 2.43292C5.04278 2.0865 4.65786 1.89404 4.19597 1.89404Z" fill="#DC9171"/>
<path d="M6.04341 23.565H4.88867V23.4495C4.88867 21.9099 6.15888 20.6396 7.73702 20.6396H17.8602V21.7944H7.69853C6.77474 21.7944 6.00492 22.5257 6.00492 23.488L6.04341 23.565Z" fill="#DC9171"/>
<path d="M5.46544 29.261C3.73334 29.261 2.34766 27.8753 2.34766 26.1432C2.34766 24.4111 3.73334 23.0254 5.46544 23.0254C7.19754 23.0254 8.58322 24.4111 8.58322 26.1432C8.58322 27.8368 7.19754 29.261 5.46544 29.261ZM5.46544 24.1416C4.38769 24.1416 3.50239 25.0269 3.50239 26.1047C3.50239 27.1824 4.38769 28.0677 5.46544 28.0677C6.54319 28.0677 7.42849 27.1824 7.42849 26.1047C7.42849 25.0269 6.54319 24.1416 5.46544 24.1416Z" fill="#DC9171"/>
<path d="M39.415 21.2167H38.2603V15.8279C38.2603 14.1728 36.9131 12.7871 35.2195 12.7871H21.4397C19.7846 12.7871 18.3989 14.1343 18.3989 15.8279V21.2167H17.2441V15.8279C17.2441 13.5185 19.1302 11.6709 21.4012 11.6709H35.181C37.4905 11.6709 39.3381 13.557 39.3381 15.8279V21.2167H39.415Z" fill="#DC9171"/>
<path d="M47.6918 21.2168H46.5371V29.146H47.6918V21.2168Z" fill="#DC9171"/>
</g>
</g>
<defs>
<clipPath id="clip0_2320_118">
<rect width="50" height="28.5219" fill="white" transform="translate(0.5 0.739258)"/>
</clipPath>
</defs>
</svg>
