<svg width="36" height="24" viewBox="0 0 36 24" fill="none" xmlns="http://www.w3.org/2000/svg">
<g clip-path="url(#clip0_2320_240)">
<path d="M31.8442 16.9267H31.4147C31.5221 16.4025 31.5726 15.8531 31.5726 15.2973C31.5726 11.5836 29.2484 8.40675 25.9768 7.15622C27.0379 5.6278 27.0253 3.14569 27.0189 3.03201C27.0189 2.68464 26.7411 2.41306 26.4 2.40675C26.2737 2.40043 23.2547 2.3878 21.8211 3.81517C21.5558 4.08043 21.3221 4.36464 21.1263 4.66148C21.0568 4.47833 20.9811 4.28885 20.8926 4.10569C20.5389 3.36675 20.0211 2.64675 19.3832 2.00254C19.0926 1.71201 18.7516 1.45938 18.3789 1.25096C18.3474 1.23201 18.3095 1.20675 18.2716 1.19411C16.1558 0.0256938 13.1747 0.000430622 12.8211 0.000430622C12.6568 -0.00588517 12.4863 0.0572727 12.3537 0.189904C12.3284 0.215167 12.3095 0.240431 12.2905 0.265694C12.2779 0.278325 12.2716 0.290957 12.2653 0.303589C12.24 0.341483 12.2211 0.385694 12.2084 0.429904C12.2084 0.429904 12.2021 0.43622 12.2021 0.442536C12.1895 0.467799 12.1832 0.493062 12.1832 0.518325C12.1768 0.55622 12.1705 0.600431 12.1705 0.638325C12.1642 0.922536 12.1705 4.44043 13.6737 6.5878H8.63369C3.87158 6.5878 0 10.0931 0 14.4004C0 19.6931 4.76842 24.0004 10.6295 24.0004H31.8442C33.7895 24.0004 35.3684 22.4152 35.3684 20.4636C35.3684 18.512 33.7895 16.9267 31.8442 16.9267ZM22.7116 4.70569C23.3937 4.0299 24.7958 3.77096 25.7305 3.69517C25.6547 4.62359 25.3958 6.01938 24.7137 6.69517C24.6884 6.72043 24.6632 6.74569 24.6379 6.76464C23.5768 7.7878 22.3389 7.9899 21.8716 7.52885C21.72 7.37727 21.6379 7.14359 21.6379 6.85306C21.6379 6.76464 21.6442 6.67622 21.6568 6.5878C21.7516 5.97517 22.1368 5.27411 22.7116 4.70569ZM20.1726 6.30359C20.1726 6.39201 20.1726 6.48675 20.1537 6.5878C20.1411 6.71411 20.1158 6.84675 20.0716 6.97938L19.6737 6.5878L18.6568 5.57096V3.08254C19.5979 4.08043 20.1726 5.29938 20.1726 6.30359ZM15.9537 1.64885C16.4463 1.77517 16.9453 1.93938 17.3937 2.15411V4.31411L14.4379 1.37096C14.8989 1.4278 15.4232 1.51622 15.9537 1.64885ZM15.0695 6.29096C14.0968 5.32464 13.7053 3.56885 13.5474 2.2678L17.5516 6.25306L17.5768 6.27833C17.5768 6.27833 17.5768 6.28464 17.5895 6.29096L17.8863 6.59411L19.1558 7.85727L19.1684 7.87622C18.7453 8.02148 18.2147 8.00885 17.6526 7.85727C16.92 7.66148 16.1179 7.23201 15.3916 6.59411C15.2842 6.49938 15.1768 6.40464 15.0695 6.29727V6.29096ZM14.9305 7.85096C16.0926 8.76043 17.3684 9.24043 18.4926 9.24043C19.2821 9.24043 19.9895 9.00675 20.5263 8.5078C20.5579 8.48254 20.5895 8.45727 20.6211 8.42569C20.6842 8.36254 20.7474 8.29306 20.8042 8.22359C20.8611 8.29306 20.9179 8.36254 20.9811 8.42569C21.3916 8.8299 21.9474 9.03201 22.56 9.03201C23.3242 9.03201 24.1768 8.72885 24.96 8.1478C28.0484 9.04464 30.3095 11.912 30.3095 15.2973C30.3095 15.8594 30.2463 16.4025 30.1263 16.9267H13.6547C14.8863 15.9667 15.6632 14.5457 15.6632 12.9604C15.6632 10.8699 14.5453 9.01306 12.8274 7.85096H14.9305ZM31.8442 22.7373H10.6295C5.46947 22.7373 1.26316 18.9983 1.26316 14.4004C1.26316 10.7878 4.57263 7.85096 8.63369 7.85096C11.8105 7.85096 14.4 10.1436 14.4 12.9604C14.4 15.1457 12.3853 16.9267 9.90947 16.9267C8.00211 16.9267 6.44842 15.5562 6.44842 13.8825C6.44842 12.6067 7.63579 11.571 9.09474 11.571C9.44211 11.571 9.72632 11.2867 9.72632 10.9394C9.72632 10.592 9.44211 10.3078 9.09474 10.3078C6.94105 10.3078 5.18526 11.912 5.18526 13.8825C5.18526 16.2573 7.30737 18.1899 9.90947 18.1899H31.8442C33.0947 18.1899 34.1053 19.2067 34.1053 20.4636C34.1053 21.7204 33.0947 22.7373 31.8442 22.7373Z" fill="#DC9171"/>
</g>
<defs>
<clipPath id="clip0_2320_240">
<rect width="35.3684" height="24" fill="white"/>
</clipPath>
</defs>
</svg>
