<svg width="25" height="25" viewBox="0 0 25 25" fill="none" xmlns="http://www.w3.org/2000/svg">
<path d="M12.293 0.535645C14.474 0.535645 16.4922 1.08903 18.3476 2.1958C20.2031 3.27002 21.668 4.73486 22.7422 6.59033C23.849 8.4458 24.4023 10.464 24.4023 12.645C24.4023 14.826 23.849 16.8442 22.7422 18.6997C21.668 20.5552 20.2031 22.02 18.3476 23.0942C16.4922 24.201 14.474 24.7544 12.293 24.7544C10.112 24.7544 8.09374 24.201 6.23827 23.0942C4.3828 22.02 2.90169 20.5552 1.79491 18.6997C0.720695 16.8442 0.183586 14.826 0.183586 12.645C0.183586 10.464 0.720695 8.4458 1.79491 6.59033C2.90169 4.73486 4.3828 3.27002 6.23827 2.1958C8.09374 1.08903 10.112 0.535645 12.293 0.535645ZM20.5937 17.0884H20.5449C20.61 16.9582 20.61 16.8442 20.5449 16.7466C20.5124 16.6489 20.4473 16.5838 20.3496 16.5513C19.4056 16.3885 18.5755 15.9002 17.8594 15.0864C17.5013 14.6632 17.2246 14.2238 17.0293 13.7681H16.9805C16.8828 13.5076 16.8665 13.2961 16.9316 13.1333C16.9967 12.938 17.2897 12.759 17.8105 12.5962L18.1035 12.4985C18.6569 12.2707 18.9336 12.0103 18.9336 11.7173C18.9336 11.4243 18.7708 11.2127 18.4453 11.0825C18.1849 11.0174 17.957 11.0174 17.7617 11.0825C17.5013 11.2127 17.2572 11.2941 17.0293 11.3267C16.9316 11.3267 16.8503 11.2941 16.7851 11.229V10.8872C16.8503 10.0734 16.8665 9.47119 16.834 9.08057C16.834 8.39697 16.7526 7.85986 16.5898 7.46924C16.1992 6.62288 15.6295 5.97184 14.8809 5.51611C14.1322 5.06038 13.3184 4.83252 12.4394 4.83252H12.1465C11.4954 4.83252 10.8607 4.96273 10.2422 5.22314C9.23307 5.67887 8.50064 6.42757 8.04491 7.46924C7.88215 7.85986 7.7845 8.39697 7.75195 9.08057C7.75195 9.47119 7.76822 10.0734 7.80077 10.8872L7.8496 11.229C7.75195 11.2941 7.63801 11.3267 7.5078 11.3267C7.27994 11.3267 7.01952 11.2616 6.72655 11.1313C6.56379 11.0337 6.35221 11.05 6.09179 11.1802C5.86392 11.2778 5.73372 11.4243 5.70116 11.6196C5.60351 11.9777 5.8802 12.2707 6.53124 12.4985L6.77538 12.5962C7.29622 12.759 7.58919 12.938 7.65429 13.1333C7.75195 13.2961 7.73567 13.5076 7.60546 13.7681C7.41015 14.2238 7.11718 14.6632 6.72655 15.0864C6.04296 15.9328 5.22916 16.4211 4.28515 16.5513C4.18749 16.5838 4.10611 16.6326 4.04101 16.6978C4.00846 16.7629 3.99218 16.8442 3.99218 16.9419C4.02473 17.3976 4.75715 17.7394 6.18945 17.9673C6.222 17.9998 6.27083 18.13 6.33593 18.3579L6.43359 18.7485C6.46614 18.9438 6.59635 19.0415 6.82421 19.0415L7.21484 18.9927C7.54036 18.9276 7.83333 18.895 8.09374 18.895C8.48437 18.895 8.80989 18.9438 9.0703 19.0415C9.26562 19.1392 9.54231 19.3182 9.90038 19.5786H9.94921C10.3398 19.8716 10.6654 20.0669 10.9258 20.1646C11.3815 20.3924 11.8372 20.5063 12.293 20.5063C12.7487 20.5063 13.1881 20.4087 13.6113 20.2134C13.9043 20.0832 14.2624 19.8716 14.6855 19.5786C15.0436 19.3182 15.3203 19.1392 15.5156 19.0415C15.776 18.9438 16.1016 18.895 16.4922 18.895C16.7526 18.895 17.0456 18.9276 17.3711 18.9927C17.5664 19.0252 17.6966 19.0415 17.7617 19.0415C17.9896 19.0415 18.1198 18.9438 18.1523 18.7485L18.25 18.3579C18.3151 18.13 18.3639 17.9998 18.3965 17.9673C19.666 17.772 20.3984 17.479 20.5937 17.0884Z" fill="#BEBDBD"/>
</svg>
