<svg width="35" height="35" viewBox="0 0 35 35" fill="none" xmlns="http://www.w3.org/2000/svg">
<path d="M29.931 20.3691C29.8223 20.3674 29.7187 20.323 29.6424 20.2455C29.5662 20.168 29.5234 20.0637 29.5235 19.955V4.83449C29.4806 3.75169 29.0202 2.72751 28.239 1.97657C27.4577 1.22563 26.4161 0.806222 25.3325 0.806222C24.2488 0.806222 23.2072 1.22563 22.4259 1.97657C21.6447 2.72751 21.1844 3.75169 21.1415 4.83449V5.4919C21.1488 5.55022 21.1437 5.60944 21.1265 5.66564C21.1092 5.72183 21.0802 5.7737 21.0413 5.81781C21.0024 5.86191 20.9546 5.89724 20.9011 5.92143C20.8475 5.94563 20.7894 5.95814 20.7306 5.95814C20.6718 5.95814 20.6137 5.94563 20.5601 5.92143C20.5065 5.89724 20.4587 5.86191 20.4198 5.81781C20.381 5.7737 20.3519 5.72183 20.3347 5.66564C20.3174 5.60944 20.3123 5.55022 20.3197 5.4919V4.83449C20.3667 3.53643 20.9154 2.30723 21.8504 1.40555C22.7853 0.503858 24.0336 0 25.3325 0C26.6314 0 27.8796 0.503858 28.8146 1.40555C29.7495 2.30723 30.2982 3.53643 30.3452 4.83449V19.955C30.3452 20.0648 30.3016 20.1701 30.2239 20.2478C30.1462 20.3255 30.0409 20.3691 29.931 20.3691Z" fill="#DC9171"/>
<path d="M25.3301 9.85022H16.1263C16.0176 9.84849 15.914 9.8041 15.8377 9.72661C15.7615 9.64912 15.7187 9.54476 15.7188 9.43605V8.77864C15.7188 7.79875 16.108 6.859 16.8009 6.16612C17.4938 5.47324 18.4335 5.08398 19.4134 5.08398H22.043C23.0235 5.08398 23.964 5.47303 24.6579 6.16572C25.3518 6.85842 25.7425 7.79815 25.7443 8.77864V9.43605C25.7443 9.49044 25.7336 9.54429 25.7127 9.59454C25.6919 9.64479 25.6614 9.69045 25.623 9.72891C25.5845 9.76737 25.5389 9.79788 25.4886 9.81869C25.4384 9.8395 25.3845 9.85022 25.3301 9.85022ZM16.5405 9.02845H24.9225V8.77864C24.9208 8.0161 24.6166 7.28538 24.0768 6.7468C23.537 6.20822 22.8056 5.90575 22.043 5.90575H19.4134C18.6515 5.90575 17.9207 6.20843 17.382 6.7472C16.8432 7.28597 16.5405 8.0167 16.5405 8.77864V9.02845Z" fill="#DC9171"/>
<path d="M25.1459 34.8317H23.5484C23.3082 34.831 23.0752 34.7496 22.8869 34.6006C22.6985 34.4515 22.5657 34.2435 22.5097 34.01L21.9772 31.88C21.9605 31.8193 21.9584 31.7555 21.971 31.6938C21.9835 31.6322 22.0104 31.5743 22.0495 31.525C22.0879 31.4762 22.1368 31.4367 22.1926 31.4094C22.2484 31.3821 22.3095 31.3677 22.3716 31.3672H26.3161C26.3792 31.3671 26.4415 31.3813 26.4984 31.4086C26.5553 31.4359 26.6054 31.4757 26.6448 31.525C26.6839 31.5743 26.7108 31.6322 26.7233 31.6938C26.7359 31.7555 26.7338 31.8193 26.7171 31.88L26.1846 34.01C26.1286 34.2435 25.9958 34.4515 25.8074 34.6006C25.6191 34.7496 25.3861 34.831 25.1459 34.8317ZM22.9041 32.2021L23.3051 33.8259C23.3197 33.8791 23.3514 33.9261 23.3954 33.9594C23.4394 33.9927 23.4932 34.0105 23.5484 34.01H25.1459C25.2011 34.0105 25.2549 33.9927 25.2989 33.9594C25.3429 33.9261 25.3746 33.8791 25.3891 33.8259L25.7902 32.2021H22.9041Z" fill="#DC9171"/>
<path d="M11.3412 34.8317H9.7437C9.50352 34.831 9.27055 34.7496 9.08219 34.6006C8.89382 34.4515 8.76099 34.2435 8.70499 34.01L8.17249 31.88C8.15584 31.8193 8.15371 31.7555 8.16627 31.6938C8.17884 31.6322 8.20574 31.5743 8.24481 31.525C8.28324 31.4762 8.33214 31.4367 8.3879 31.4094C8.44366 31.3821 8.50485 31.3677 8.56694 31.3672H12.5114C12.5745 31.3671 12.6368 31.3813 12.6937 31.4086C12.7506 31.4359 12.8007 31.4757 12.8401 31.525C12.8792 31.5743 12.9061 31.6322 12.9186 31.6938C12.9312 31.7555 12.9291 31.8193 12.9124 31.88L12.3799 34.01C12.3239 34.2435 12.1911 34.4515 12.0027 34.6006C11.8144 34.7496 11.5814 34.831 11.3412 34.8317ZM9.09944 32.2021L9.50046 33.8259C9.51498 33.8791 9.54672 33.9261 9.59072 33.9594C9.63473 33.9927 9.68852 34.0105 9.7437 34.01H11.3412C11.3964 34.0105 11.4502 33.9927 11.4942 33.9594C11.5382 33.9261 11.5699 33.8791 11.5845 33.8259L11.9855 32.2021H9.09944Z" fill="#DC9171"/>
<path d="M27.151 32.2024H7.73766C6.86197 32.2033 6.01443 31.8932 5.34617 31.3272C4.67791 30.7613 4.23238 29.9764 4.08903 29.1126L3.01087 22.6173C2.90723 21.993 2.5867 21.4253 2.1057 21.0141C1.6247 20.6028 1.01405 20.3744 0.381229 20.369C0.280263 20.3609 0.185748 20.3162 0.115561 20.2431C0.0453737 20.1701 0.00437944 20.0739 0.000331188 19.9727C-0.00371706 19.8715 0.0294614 19.7723 0.0935917 19.6939C0.157722 19.6155 0.248358 19.5633 0.348358 19.5472H34.5338C34.5921 19.5398 34.6513 19.5449 34.7075 19.5622C34.7637 19.5795 34.8156 19.6085 34.8597 19.6474C34.9038 19.6863 34.9391 19.7341 34.9633 19.7876C34.9875 19.8412 35 19.8993 35 19.9581C35 20.0169 34.9875 20.075 34.9633 20.1286C34.9391 20.1822 34.9038 20.23 34.8597 20.2688C34.8156 20.3077 34.7637 20.3367 34.7075 20.354C34.6513 20.3713 34.5921 20.3764 34.5338 20.369C33.9006 20.3731 33.2892 20.601 32.808 21.0125C32.3267 21.424 32.0065 21.9925 31.9041 22.6173L30.826 29.1126C30.6819 29.9809 30.2325 30.7693 29.5588 31.3358C28.8851 31.9023 28.0312 32.2096 27.151 32.2024ZM2.61643 20.369C3.25579 20.9096 3.68219 21.6599 3.81949 22.4859L4.89765 28.9745C5.00844 29.6474 5.35497 30.2589 5.87528 30.6997C6.39558 31.1405 7.05573 31.3819 7.73766 31.3806H27.151C27.833 31.3819 28.4931 31.1405 29.0134 30.6997C29.5337 30.2589 29.8802 29.6474 29.991 28.9745L31.0692 22.4859C31.2065 21.6599 31.6329 20.9096 32.2723 20.369H2.61643Z" fill="#DC9171"/>
<path d="M20.7279 16.0958C20.6192 16.0941 20.5155 16.0497 20.4393 15.9722C20.363 15.8947 20.3203 15.7903 20.3203 15.6816V15.0242C20.333 14.9242 20.3817 14.8322 20.4574 14.7655C20.533 14.6989 20.6304 14.6621 20.7312 14.6621C20.832 14.6621 20.9294 14.6989 21.005 14.7655C21.0807 14.8322 21.1294 14.9242 21.1421 15.0242V15.6816C21.1421 15.7915 21.0984 15.8968 21.0208 15.9745C20.9431 16.0521 20.8378 16.0958 20.7279 16.0958Z" fill="#DC9171"/>
<path d="M20.7279 13.4659C20.6192 13.4642 20.5155 13.4198 20.4393 13.3423C20.363 13.2648 20.3203 13.1604 20.3203 13.0517V12.3943C20.333 12.2943 20.3817 12.2023 20.4574 12.1357C20.533 12.069 20.6304 12.0322 20.7312 12.0322C20.832 12.0322 20.9294 12.069 21.005 12.1357C21.0807 12.2023 21.1294 12.2943 21.1421 12.3943V13.0517C21.1421 13.1616 21.0984 13.2669 21.0208 13.3446C20.9431 13.4223 20.8378 13.4659 20.7279 13.4659Z" fill="#DC9171"/>
<path d="M20.7279 18.7257C20.6192 18.7239 20.5155 18.6795 20.4393 18.6021C20.363 18.5246 20.3203 18.4202 20.3203 18.3115V17.6541C20.333 17.5541 20.3817 17.4621 20.4574 17.3954C20.533 17.3288 20.6304 17.292 20.7312 17.292C20.832 17.292 20.9294 17.3288 21.005 17.3954C21.0807 17.4621 21.1294 17.5541 21.1421 17.6541V18.3115C21.1421 18.4213 21.0984 18.5267 21.0208 18.6044C20.9431 18.682 20.8378 18.7257 20.7279 18.7257Z" fill="#DC9171"/>
<path d="M18.099 14.7813C17.9903 14.7796 17.8866 14.7352 17.8104 14.6577C17.7341 14.5802 17.6914 14.4759 17.6914 14.3672V13.7097C17.7041 13.6097 17.7528 13.5178 17.8285 13.4511C17.9041 13.3844 18.0015 13.3477 18.1023 13.3477C18.2031 13.3477 18.3005 13.3844 18.3761 13.4511C18.4518 13.5178 18.5005 13.6097 18.5132 13.7097V14.3672C18.5132 14.477 18.4695 14.5823 18.3919 14.66C18.3142 14.7377 18.2088 14.7813 18.099 14.7813Z" fill="#DC9171"/>
<path d="M18.099 12.1514C17.9903 12.1497 17.8866 12.1053 17.8104 12.0278C17.7341 11.9504 17.6914 11.846 17.6914 11.7373V11.0799C17.7041 10.9798 17.7528 10.8879 17.8285 10.8212C17.9041 10.7546 18.0015 10.7178 18.1023 10.7178C18.2031 10.7178 18.3005 10.7546 18.3761 10.8212C18.4518 10.8879 18.5005 10.9798 18.5132 11.0799V11.7373C18.5132 11.8471 18.4695 11.9525 18.3919 12.0301C18.3142 12.1078 18.2088 12.1514 18.099 12.1514Z" fill="#DC9171"/>
<path d="M18.099 17.4102C17.9903 17.4085 17.8866 17.3641 17.8104 17.2866C17.7341 17.2091 17.6914 17.1048 17.6914 16.9961V16.3387C17.7041 16.2386 17.7528 16.1467 17.8285 16.08C17.9041 16.0133 18.0015 15.9766 18.1023 15.9766C18.2031 15.9766 18.3005 16.0133 18.3761 16.08C18.4518 16.1467 18.5005 16.2386 18.5132 16.3387V16.9961C18.5132 17.1059 18.4695 17.2113 18.3919 17.2889C18.3142 17.3666 18.2088 17.4102 18.099 17.4102Z" fill="#DC9171"/>
<path d="M23.3588 14.7813C23.2501 14.7796 23.1464 14.7352 23.0701 14.6577C22.9939 14.5802 22.9512 14.4759 22.9512 14.3672V13.7097C22.9638 13.6097 23.0126 13.5178 23.0882 13.4511C23.1639 13.3844 23.2612 13.3477 23.3621 13.3477C23.4629 13.3477 23.5602 13.3844 23.6359 13.4511C23.7115 13.5178 23.7603 13.6097 23.7729 13.7097V14.3672C23.7729 14.477 23.7293 14.5823 23.6516 14.66C23.574 14.7377 23.4686 14.7813 23.3588 14.7813Z" fill="#DC9171"/>
<path d="M23.3588 12.1514C23.2501 12.1497 23.1464 12.1053 23.0701 12.0278C22.9939 11.9504 22.9512 11.846 22.9512 11.7373V11.0799C22.9638 10.9798 23.0126 10.8879 23.0882 10.8212C23.1639 10.7546 23.2612 10.7178 23.3621 10.7178C23.4629 10.7178 23.5602 10.7546 23.6359 10.8212C23.7115 10.8879 23.7603 10.9798 23.7729 11.0799V11.7373C23.7729 11.8471 23.7293 11.9525 23.6516 12.0301C23.574 12.1078 23.4686 12.1514 23.3588 12.1514Z" fill="#DC9171"/>
<path d="M23.3588 17.4102C23.2501 17.4085 23.1464 17.3641 23.0701 17.2866C22.9939 17.2091 22.9512 17.1048 22.9512 16.9961V16.3387C22.9638 16.2386 23.0126 16.1467 23.0882 16.08C23.1639 16.0133 23.2612 15.9766 23.3621 15.9766C23.4629 15.9766 23.5602 16.0133 23.6359 16.08C23.7115 16.1467 23.7603 16.2386 23.7729 16.3387V16.9961C23.7729 17.1059 23.7293 17.2113 23.6516 17.2889C23.574 17.3666 23.4686 17.4102 23.3588 17.4102Z" fill="#DC9171"/>
</svg>
