<svg width="36" height="29" viewBox="0 0 36 29" fill="none" xmlns="http://www.w3.org/2000/svg">
<g clip-path="url(#clip0_2320_228)">
<path d="M7.01524 3.08594C4.84838 3.08594 3.08594 4.84838 3.08594 7.01524C3.08594 9.1821 4.84885 10.9445 7.01524 10.9445C9.18163 10.9445 10.9445 9.18163 10.9445 7.01524C10.9445 4.84885 9.18163 3.08594 7.01524 3.08594ZM7.01524 10.0837C5.32356 10.0837 3.94725 8.7074 3.94725 7.01571C3.94725 5.32402 5.32356 3.94771 7.01524 3.94771C8.70693 3.94771 10.0832 5.32402 10.0832 7.01571C10.0832 8.7074 8.70693 10.0837 7.01524 10.0837Z" fill="#DC9171"/>
<path d="M25.8641 0.750715C25.7342 0.701511 25.5885 0.717912 25.4732 0.794764L22.5917 2.71232C20.2585 3.52161 16.8995 2.47708 13.6502 1.46582C11.2275 0.712289 8.93969 0 7.01511 0C3.14672 0 0 3.14672 0 7.01511C0 9.94252 1.80275 12.4566 4.35668 13.5063L5.21892 23.088C5.22876 24.5098 6.28126 25.6888 7.64867 25.8959V28.5693C7.64867 28.8069 7.84127 29 8.07932 29C8.31738 29 8.50998 28.8074 8.50998 28.5693V25.8959C9.87645 25.6888 10.9285 24.5116 10.9397 23.0913L11.4758 17.938H12.5189C12.9416 17.938 13.3442 17.7557 13.6235 17.4384C13.9028 17.1207 14.0316 16.698 13.9773 16.2791L13.5841 13.2458C14.2631 13.1061 14.9239 12.9604 15.5635 12.8193C18.4731 12.1773 20.9882 11.623 22.5852 12.2814L25.4798 14.1291C25.5501 14.1741 25.6307 14.1966 25.7118 14.1966C25.7666 14.1966 25.8219 14.1858 25.8744 14.1647C26.0037 14.1118 26.0998 13.9993 26.1312 13.8634C27.1837 9.31927 27.1827 5.0057 26.1279 1.04313C26.0923 0.909106 25.9939 0.800388 25.8641 0.751184V0.750715ZM10.0808 23.0233C10.0794 23.0383 10.0784 23.0529 10.0784 23.0679C10.0784 24.17 9.1815 25.0669 8.07932 25.0669C6.97715 25.0669 6.08023 24.17 6.08023 23.0679C6.08023 23.0547 6.07976 23.0421 6.07836 23.0294L5.24798 13.8043C5.81265 13.9515 6.40498 14.0297 7.01511 14.0297C8.39517 14.0297 9.74617 13.8981 11.0508 13.7022L10.6693 17.3705C10.6548 17.4136 10.6468 17.459 10.6468 17.5068C10.6468 17.5237 10.6483 17.5401 10.6501 17.5565L10.0812 23.0233H10.0808ZM13.123 16.3892C13.1459 16.5654 13.0939 16.736 12.9763 16.8695C12.8587 17.0031 12.6965 17.0767 12.5189 17.0767H11.5653L11.9313 13.5597C12.2026 13.5129 12.4711 13.4632 12.7373 13.4126L13.123 16.3892ZM22.3513 11.2987C20.5486 10.8371 18.1315 11.3704 15.3775 11.9777C12.847 12.5358 9.97861 13.1689 7.01464 13.1689C3.62143 13.1689 0.860839 10.4083 0.860839 7.01511C0.860839 3.6219 3.6219 0.861307 7.01511 0.861307C8.80895 0.861307 11.0363 1.55438 13.3943 2.28823C16.5551 3.27184 19.8157 4.28639 22.3518 3.67953V11.2987H22.3513ZM25.4245 13.0719L23.2127 11.66V3.3337L25.4428 1.84961C26.2694 5.33936 26.2633 9.1084 25.4245 13.0719Z" fill="#DC9171"/>
<path d="M8.35111 4.99023H5.67675C5.43869 4.99023 5.24609 5.18283 5.24609 5.42089C5.24609 5.65894 5.43869 5.85154 5.67675 5.85154H8.35111C8.58917 5.85154 8.78176 5.65894 8.78176 5.42089C8.78176 5.18283 8.58917 4.99023 8.35111 4.99023Z" fill="#DC9171"/>
<path d="M8.35111 6.69141H5.67675C5.43869 6.69141 5.24609 6.88401 5.24609 7.12206C5.24609 7.36011 5.43869 7.55271 5.67675 7.55271H8.35111C8.58917 7.55271 8.78176 7.36011 8.78176 7.12206C8.78176 6.88401 8.58917 6.69141 8.35111 6.69141Z" fill="#DC9171"/>
<path d="M8.35111 8.34668H5.67675C5.43869 8.34668 5.24609 8.53928 5.24609 8.77733C5.24609 9.01539 5.43869 9.20799 5.67675 9.20799H8.35111C8.58917 9.20799 8.78176 9.01539 8.78176 8.77733C8.78176 8.53928 8.58917 8.34668 8.35111 8.34668Z" fill="#DC9171"/>
<path d="M27.9524 4.72416C28.1515 4.85444 28.4182 4.79867 28.5485 4.59998C28.8006 4.21525 29.3793 3.94627 29.9557 3.94627C30.3189 3.94627 30.6553 4.13137 31.0452 4.34599C31.5583 4.62857 32.1966 4.98002 33.0846 4.98002C33.9726 4.98002 34.4023 4.64825 34.7726 4.38161C34.8335 4.33803 34.8939 4.29398 34.9567 4.2518C35.154 4.11872 35.2055 3.85114 35.0725 3.65386C34.9394 3.45657 34.6718 3.40502 34.4745 3.53811C34.4047 3.58544 34.3367 3.63417 34.2693 3.68291C33.9309 3.92659 33.6638 4.11872 33.0846 4.11872C32.4182 4.11872 31.9529 3.86239 31.4604 3.59153C31.0082 3.34223 30.5401 3.08496 29.9557 3.08496C29.0916 3.08496 28.2368 3.5039 27.8282 4.12762C27.6979 4.32678 27.7537 4.59342 27.9524 4.72369V4.72416Z" fill="#DC9171"/>
<path d="M34.4745 6.62893C34.4047 6.67626 34.3367 6.72499 34.2693 6.77373C33.9309 7.01741 33.6638 7.20954 33.0846 7.20954C32.4182 7.20954 31.9529 6.95321 31.4604 6.68235C31.0082 6.43305 30.5401 6.17578 29.9557 6.17578C29.0916 6.17578 28.2368 6.59472 27.8282 7.21844C27.6979 7.4176 27.7537 7.68424 27.9524 7.81451C28.1511 7.94479 28.4182 7.88949 28.5485 7.69033C28.8006 7.3056 29.3793 7.03662 29.9557 7.03662C30.3189 7.03662 30.6553 7.22172 31.0452 7.43634C31.5583 7.71892 32.1966 8.07038 33.0846 8.07038C33.9726 8.07038 34.4023 7.7386 34.7726 7.47196C34.8335 7.42838 34.8939 7.38433 34.9567 7.34215C35.154 7.20907 35.2055 6.94149 35.0725 6.74421C34.9394 6.54692 34.6718 6.49537 34.4745 6.62846V6.62893Z" fill="#DC9171"/>
<path d="M34.475 9.7178C34.4052 9.76513 34.3372 9.81386 34.2693 9.8626C33.9309 10.1063 33.6638 10.2984 33.0846 10.2984C32.4182 10.2984 31.9529 10.0421 31.4604 9.77122C31.0082 9.52192 30.5401 9.26465 29.9557 9.26465C29.0916 9.26465 28.2368 9.68359 27.8282 10.3073C27.6979 10.5065 27.7537 10.7731 27.9524 10.9034C28.1515 11.0337 28.4182 10.9779 28.5485 10.7792C28.8006 10.3945 29.3793 10.1255 29.9557 10.1255C30.3189 10.1255 30.6553 10.3106 31.0452 10.5252C31.5583 10.8078 32.1966 11.1592 33.0846 11.1592C33.9726 11.1592 34.4023 10.8275 34.7726 10.5613C34.8335 10.5177 34.8939 10.4737 34.9567 10.4315C35.154 10.2984 35.2055 10.0308 35.0725 9.83354C34.9394 9.63673 34.6718 9.58471 34.4745 9.7178H34.475Z" fill="#DC9171"/>
</g>
<defs>
<clipPath id="clip0_2320_228">
<rect width="35.1458" height="29" fill="white"/>
</clipPath>
</defs>
</svg>
