<svg width="62" height="62" viewBox="0 0 62 62" fill="none" xmlns="http://www.w3.org/2000/svg">
<path d="M44.5932 27.1853C45.1177 27.0551 45.6168 26.7061 46.1314 26.6961C46.9244 26.6763 47.8203 26.6682 48.4955 27.0049C49.6673 27.5896 49.7603 28.8643 48.6889 29.6399C47.8308 30.2549 46.7967 30.661 45.7954 31.0454C43.5671 31.906 43.2707 32.5539 44.3973 34.6644C46.2647 38.1606 48.8793 40.7627 52.8795 41.7262C53.2937 41.8241 53.9589 42.2811 53.9385 42.5216C53.8932 43.0685 53.6247 43.872 53.2106 44.0623C51.8652 44.6923 50.4398 45.2267 48.9921 45.5379C48.0888 45.7239 47.7496 46.0575 47.5593 46.9081C47.1526 48.7024 46.7961 48.9256 45.057 48.5772C42.2911 48.0198 39.8595 48.4997 37.5029 50.201C32.7475 53.6413 29.2036 53.6265 24.4581 50.1811C22.1442 48.4947 19.7473 48.0229 17.0224 48.5828C15.1953 48.9566 14.8816 48.7359 14.4451 46.8765C14.2647 46.1164 13.9807 45.7246 13.0947 45.5565C11.7071 45.2908 10.3583 44.8523 9.0796 44.2514C8.56748 44.0158 8.16138 43.2024 8.06094 42.6029C8.02064 42.3567 8.87686 41.7925 9.40076 41.6468C13.7073 40.4701 16.3299 37.5238 18.0938 33.6184C18.5104 32.6946 18.1589 32.0399 17.3938 31.6109C16.7112 31.2345 15.938 31.0213 15.2102 30.7175C14.7507 30.524 14.2814 30.3312 13.8598 30.0702C13.0017 29.5407 12.2813 28.8829 12.7779 27.7439C13.1821 26.8077 14.5145 26.3111 15.5636 26.6472C16.1581 26.8356 16.7403 27.0812 17.3454 27.2145C18.1384 27.385 18.5854 27.1593 18.5551 26.1877C18.485 23.9818 18.3591 21.7585 18.5377 19.5624C18.914 14.9223 21.6272 11.8602 25.8029 10.2314C31.8386 7.8872 39.0461 9.65668 42.3011 15.4965C43.4431 17.5443 43.6161 19.7602 43.7116 22.0213C43.621 23.4393 43.5485 24.8547 43.4357 26.2652C43.3662 27.1853 43.848 27.3707 44.5932 27.1853Z" fill="#E3E3E6"/>
</svg>
