<svg width="54" height="54" viewBox="0 0 54 54" fill="none" xmlns="http://www.w3.org/2000/svg">
<rect width="54" height="54" rx="27" fill="white" fill-opacity="0.45"/>
<g clip-path="url(#clip0_95_5723)">
<path d="M22.8846 17.8493C23.4553 17.2831 24.1591 17 24.9961 17C25.8331 17 26.537 17.2831 27.1077 17.8493L36.6667 27L27.1077 36.1507C26.5179 36.7169 25.8141 37 24.9961 37C24.1781 37 23.4743 36.7169 22.8846 36.1507C22.2949 35.5845 22 34.9087 22 34.1233C22 33.3379 22.2949 32.6621 22.8846 32.0959L28.249 27L22.8846 21.9041C22.2949 21.3196 22 20.6438 22 19.8767C22 19.1096 22.2949 18.4338 22.8846 17.8493Z" fill="black"/>
</g>
<defs>
<clipPath id="clip0_95_5723">
<rect width="15" height="20" fill="white" transform="matrix(1 0 0 -1 22 37)"/>
</clipPath>
</defs>
</svg>
