<svg width="54" height="54" viewBox="0 0 54 54" fill="none" xmlns="http://www.w3.org/2000/svg">
<rect x="54" y="54" width="54" height="54" rx="27" transform="rotate(-180 54 54)" fill="white" fill-opacity="0.45"/>
<g clip-path="url(#clip0_95_5726)">
<path d="M31.1154 36.1507C30.5447 36.7169 29.8409 37 29.0039 37C28.1669 37 27.463 36.7169 26.8923 36.1507L17.3333 27L26.8923 17.8493C27.4821 17.2831 28.1859 17 29.0039 17C29.8219 17 30.5257 17.2831 31.1154 17.8493C31.7051 18.4155 32 19.0913 32 19.8767C32 20.6621 31.7051 21.3379 31.1154 21.9041L25.751 27L31.1154 32.0959C31.7051 32.6804 32 33.3562 32 34.1233C32 34.8904 31.7051 35.5662 31.1154 36.1507Z" fill="black"/>
</g>
<defs>
<clipPath id="clip0_95_5726">
<rect width="15" height="20" fill="white" transform="matrix(-1 -8.74228e-08 -8.74228e-08 1 32 17)"/>
</clipPath>
</defs>
</svg>
