<svg width="28" height="29" viewBox="0 0 28 29" fill="none" xmlns="http://www.w3.org/2000/svg">
<rect y="0.850098" width="27.2" height="27.2" rx="13.6" fill="black"/>
<path d="M20.4201 17.5418C20.6404 17.652 20.8057 17.8998 20.8057 18.1752C20.8057 18.2027 20.8057 18.2578 20.8057 18.3129L20.1447 21.177C20.0621 21.4799 19.8142 21.6727 19.5113 21.6727C12.4338 21.6727 6.73319 15.9721 6.73319 8.89453C6.73319 8.5916 6.92596 8.34375 7.22889 8.26113L10.093 7.60019C10.148 7.60019 10.2031 7.57266 10.2307 7.57266C10.506 7.57266 10.7539 7.73789 10.8641 7.98574L12.1859 11.0701C12.2135 11.1527 12.241 11.2354 12.241 11.318C12.241 11.5383 12.1308 11.7311 11.9932 11.8412L10.3133 13.2182C11.3322 15.3662 13.0396 17.0736 15.1877 18.0926L16.5646 16.4127C16.6748 16.275 16.8676 16.1648 17.0603 16.1648C17.1705 16.1648 17.2531 16.1924 17.3357 16.2199L20.4201 17.5418Z" fill="white"/>
</svg>
