<svg width="62" height="62" viewBox="0 0 62 62" fill="none" xmlns="http://www.w3.org/2000/svg">
<path d="M42.8833 15.035C41.1178 13.0188 40.1447 10.4299 40.145 7.75H32.1625V39.7833C32.1022 41.5172 31.3707 43.1599 30.1224 44.3649C28.8741 45.5698 27.2066 46.2427 25.4716 46.2417C21.8033 46.2417 18.755 43.245 18.755 39.525C18.755 35.0817 23.0433 31.7492 27.4608 33.1183V24.955C18.5483 23.7667 10.7466 30.69 10.7466 39.525C10.7466 48.1275 17.8766 54.25 25.4458 54.25C33.5575 54.25 40.145 47.6625 40.145 39.525V23.2758C43.3819 25.6004 47.2682 26.8477 51.2533 26.8408V18.8583C51.2533 18.8583 46.3966 19.0908 42.8833 15.035Z" fill="white"/>
</svg>
