<svg width="35" height="27" viewBox="0 0 35 27" fill="none" xmlns="http://www.w3.org/2000/svg">
<g clip-path="url(#clip0_2320_295)">
<path d="M30.7404 22.0342C33.75 22.0342 34.8033 19.9275 34.8033 17.9713V4.0629C34.8033 2.08519 33.7285 0 30.7404 0H4.0629C2.10669 0 0 1.07484 0 4.0629V17.9498C0 19.9275 1.07484 22.0127 4.0629 22.0127H14.3169V25.4522H12.4682C12.0382 25.4522 11.7158 25.7962 11.7158 26.2046C11.7158 26.6131 12.0597 26.957 12.4682 26.957H22.3137C22.7436 26.957 23.0661 26.6131 23.0661 26.2046C23.0661 25.7962 22.7221 25.4522 22.3137 25.4522H20.465V22.0127H30.7189L30.7404 22.0342ZM1.52627 17.9713V4.0629C1.52627 1.95621 2.90207 1.52627 4.0629 1.52627H30.7189C32.8256 1.52627 33.2771 2.90207 33.2771 4.08439V17.9713C33.2771 19.1322 32.8256 20.5295 30.7189 20.5295H4.0629C1.95621 20.5295 1.50478 19.1537 1.50478 17.9713H1.52627ZM18.9602 25.4737H15.8432V22.0342H18.9602V25.4737Z" fill="#DC9171"/>
<path d="M16.8742 8.40483C16.9817 8.29735 17.0462 8.16837 17.0462 8.01789C17.0462 7.86741 16.9817 7.71693 16.8742 7.63095C16.7667 7.54496 16.5948 7.48047 16.3583 7.48047H12.1449C11.9299 7.48047 11.758 7.52346 11.6505 7.63095C11.543 7.73843 11.4785 7.86741 11.4785 8.03939C11.4785 8.21136 11.543 8.34034 11.6505 8.42633C11.758 8.51232 11.9299 8.57681 12.1449 8.57681H13.5852V13.3276C13.5852 13.6071 13.6497 13.8005 13.7787 13.9295C13.9077 14.0585 14.0581 14.123 14.2516 14.123C14.4451 14.123 14.5956 14.0585 14.7245 13.9295C14.8535 13.8005 14.918 13.5856 14.918 13.3276V8.57681H16.3583C16.5948 8.57681 16.7452 8.53381 16.8742 8.42633V8.40483Z" fill="#DC9171"/>
<path d="M17.4766 8.40489C17.4766 8.40489 17.5411 8.55537 17.5626 8.64136L19.1104 12.8762C19.1749 13.0482 19.2179 13.1987 19.2824 13.3492C19.3468 13.4996 19.4113 13.6286 19.4758 13.7361C19.5403 13.8436 19.6478 13.9511 19.7768 14.0156C19.9058 14.0801 20.0562 14.123 20.2282 14.123C20.4002 14.123 20.5507 14.0801 20.6796 14.0156C20.8086 13.9511 20.8946 13.8436 20.9806 13.7361C21.0666 13.6286 21.1311 13.4996 21.1741 13.3492C21.2171 13.1987 21.2816 13.0482 21.3461 12.8762L22.9368 8.59837C22.9368 8.59837 22.9798 8.44789 23.0228 8.3834C23.0658 8.31891 23.0658 8.23292 23.0873 8.16843C23.1088 8.10394 23.1088 8.01795 23.1088 7.95346C23.1088 7.86747 23.0873 7.75999 23.0228 7.674C22.9583 7.58801 22.8938 7.50203 22.7863 7.45903C22.6789 7.41604 22.5929 7.37305 22.4639 7.37305C22.3134 7.37305 22.1844 7.41604 22.0984 7.48053C22.0125 7.54502 21.948 7.63101 21.905 7.717C21.862 7.80298 21.7975 7.97496 21.733 8.21142L20.2497 12.6398L18.7664 8.25442C18.6589 7.95346 18.573 7.73849 18.487 7.58801C18.401 7.43754 18.229 7.37305 18.014 7.37305C17.8206 7.37305 17.6701 7.43754 17.5626 7.56652C17.4551 7.6955 17.3691 7.82448 17.3691 7.97496C17.3691 8.03945 17.3691 8.10394 17.3906 8.18993C17.4121 8.27591 17.4336 8.3619 17.4551 8.42639L17.4766 8.40489Z" fill="#DC9171"/>
</g>
<defs>
<clipPath id="clip0_2320_295">
<rect width="34.8033" height="27" fill="white"/>
</clipPath>
</defs>
</svg>
