<svg width="27" height="26" viewBox="0 0 27 26" fill="none" xmlns="http://www.w3.org/2000/svg">
<g clip-path="url(#clip0_95_5929)">
<path d="M14.122 0.0445232C14.8056 0.0282478 15.4851 0.0201111 16.1606 0.0201111C16.836 0.0201111 17.5074 0.0201111 18.1747 0.0201111C18.2236 0.817636 18.3945 1.59888 18.6874 2.36386C18.9804 3.12883 19.4198 3.79615 20.0058 4.36581C20.5917 4.93547 21.2753 5.36679 22.0566 5.65976C22.8378 5.95273 23.6272 6.1399 24.4247 6.22128V10.4205C23.676 10.4042 22.9314 10.3147 22.1908 10.1519C21.4503 9.98918 20.7382 9.74504 20.0546 9.41952C19.7616 9.28932 19.4727 9.13876 19.1879 8.96786C18.9031 8.79696 18.6305 8.622 18.37 8.44296C18.37 9.20793 18.37 9.97291 18.37 10.7379C18.37 11.4866 18.37 12.2434 18.37 13.0084C18.37 13.7734 18.3619 14.5302 18.3456 15.2789C18.3456 16.0439 18.3456 16.8088 18.3456 17.5738C18.2968 18.29 18.1544 19.002 17.9184 19.7101C17.6824 20.4181 17.3528 21.0732 16.9296 21.6754C16.246 22.6682 15.3549 23.4657 14.2563 24.068C13.1576 24.6702 11.998 24.9876 10.7773 25.0201C10.0286 25.0527 9.29207 24.9754 8.56779 24.7882C7.84351 24.601 7.16398 24.3202 6.52922 23.9459C5.47127 23.3274 4.6005 22.4851 3.91691 21.419C3.23332 20.353 2.83455 19.2096 2.72062 17.9889C2.72062 17.7284 2.71655 17.468 2.70841 17.2076C2.70028 16.9472 2.70435 16.6868 2.72062 16.4264C2.81828 15.4498 3.09904 14.5058 3.56291 13.5943C4.02677 12.6829 4.64119 11.9098 5.40617 11.275C6.2688 10.5263 7.26978 9.98512 8.4091 9.65146C9.54842 9.3178 10.6796 9.25676 11.8027 9.46835C11.8189 10.2496 11.8189 11.0227 11.8027 11.7877C11.7864 12.5527 11.7782 13.3258 11.7782 14.107C11.2574 13.9443 10.7162 13.8873 10.1547 13.9361C9.59318 13.985 9.08455 14.1721 8.62883 14.4976C8.3033 14.7092 8.01847 14.9737 7.77433 15.2911C7.53019 15.6085 7.34302 15.9462 7.21281 16.3043C7.09888 16.581 7.04191 16.8617 7.04191 17.1466C7.04191 17.4314 7.05005 17.7122 7.06633 17.9889C7.18026 18.8352 7.5953 19.5636 8.31144 20.1739C9.02759 20.7843 9.82511 21.0488 10.704 20.9674C11.29 20.9674 11.8433 20.8128 12.3642 20.5035C12.885 20.1943 13.2919 19.7955 13.5849 19.3072C13.6825 19.1282 13.7761 18.9491 13.8656 18.7701C13.9552 18.5911 14.0081 18.4039 14.0243 18.2086C14.0732 17.2646 14.0935 16.3287 14.0854 15.401C14.0772 14.4732 14.0813 13.5455 14.0976 12.6178C14.0976 11.5598 14.0976 10.51 14.0976 9.46835C14.0976 8.42669 14.0976 7.38095 14.0976 6.33114C14.0976 5.28134 14.0976 4.22747 14.0976 3.16952C14.0976 2.12786 14.1057 1.08619 14.122 0.0445232Z" fill="#BEBDBD"/>
</g>
<defs>
<clipPath id="clip0_95_5929">
<rect width="25.24" height="25" fill="white" transform="matrix(1 0 0 -1 0.94043 25.02)"/>
</clipPath>
</defs>
</svg>
