<svg width="35" height="35" viewBox="0 0 35 35" fill="none" xmlns="http://www.w3.org/2000/svg">
<g clip-path="url(#clip0_2320_280)">
<path d="M34.7996 0.200293C34.6726 0.0731445 34.4962 0 34.3164 0H0.683594C0.503809 0 0.327441 0.0731445 0.200293 0.200293C0.0731445 0.327441 0 0.503809 0 0.683594V34.3164C0 34.4962 0.0731445 34.6726 0.200293 34.7997C0.327441 34.9269 0.503809 35 0.683594 35H34.3164C34.4962 35 34.6726 34.9269 34.7996 34.7997C34.9268 34.6726 35 34.4962 35 34.3164V29.9414C35 29.5647 34.6931 29.2578 34.3164 29.2578C33.9397 29.2578 33.6335 29.5641 33.6328 29.9407V29.9414V33.6328H1.36719V1.36719H33.6328V23.7891C33.6328 24.1657 33.9397 24.4727 34.3164 24.4727C34.6931 24.4727 35 24.1657 35 23.7891V0.683594C35 0.503809 34.9269 0.327441 34.7996 0.200293Z" fill="#DC9171"/>
<path d="M34.3164 27.5488C34.6939 27.5488 35 27.2428 35 26.8652C35 26.4877 34.6939 26.1816 34.3164 26.1816C33.9389 26.1816 33.6328 26.4877 33.6328 26.8652C33.6328 27.2428 33.9389 27.5488 34.3164 27.5488Z" fill="#DC9171"/>
<path d="M5.19531 23.4473V30.8984C5.19531 31.276 5.50136 31.582 5.87891 31.582H29.1211C29.4986 31.582 29.8047 31.276 29.8047 30.8984V23.4473C29.8047 23.0697 29.4986 22.7637 29.1211 22.7637H5.87891C5.50136 22.7637 5.19531 23.0697 5.19531 23.4473ZM6.5625 24.1309H28.4375V30.2148H6.5625V24.1309Z" fill="#DC9171"/>
<path d="M26.6953 9.36523C26.8697 9.36523 27.0441 9.29893 27.1774 9.16624C27.4451 8.89998 27.4462 8.46713 27.1799 8.1995C24.5947 5.60103 21.1574 4.16992 17.501 4.16992C13.8445 4.16992 10.4072 5.60103 7.82202 8.1995C7.55576 8.46713 7.55685 8.89998 7.82455 9.16624C8.09217 9.4325 8.52503 9.43141 8.79129 9.16371C11.1179 6.82507 14.2111 5.53711 17.501 5.53711C20.7909 5.53711 23.884 6.82507 26.2107 9.16378C26.3443 9.29804 26.5198 9.36523 26.6953 9.36523Z" fill="#DC9171"/>
<path d="M24.0293 12.0312C24.203 12.0312 24.3767 11.9655 24.5099 11.8337C24.7784 11.5683 24.7808 11.1354 24.5153 10.867C22.6421 8.97285 20.1511 7.92969 17.5009 7.92969C14.8508 7.92969 12.3598 8.97285 10.4866 10.867C10.2211 11.1354 10.2235 11.5683 10.492 11.8337C10.7604 12.0992 11.1933 12.0967 11.4587 11.8283C13.073 10.1959 15.2189 9.29688 17.5009 9.29688C19.783 9.29688 21.9288 10.1959 23.5432 11.8284C23.6769 11.9635 23.8531 12.0312 24.0293 12.0312Z" fill="#DC9171"/>
<path d="M21.3966 14.6973C21.5696 14.6973 21.7427 14.6319 21.8759 14.501C22.1451 14.2362 22.1486 13.8034 21.8838 13.5343C20.7135 12.3446 19.1566 11.6895 17.5 11.6895C15.8434 11.6895 14.2866 12.3446 13.1162 13.5343C12.8514 13.8035 12.855 14.2362 13.1241 14.501C13.3932 14.7658 13.826 14.7622 14.0909 14.4931C15.0021 13.5667 16.2128 13.0566 17.5 13.0566C18.7871 13.0566 19.9979 13.5667 20.9092 14.4931C21.043 14.629 21.2197 14.6973 21.3966 14.6973Z" fill="#DC9171"/>
<path d="M15.4492 17.8418C15.4492 18.9726 16.3692 19.8926 17.5 19.8926C18.6308 19.8926 19.5508 18.9726 19.5508 17.8418C19.5508 16.711 18.6308 15.791 17.5 15.791C16.3692 15.791 15.4492 16.711 15.4492 17.8418ZM18.1836 17.8418C18.1836 18.2187 17.8769 18.5254 17.5 18.5254C17.1231 18.5254 16.8164 18.2187 16.8164 17.8418C16.8164 17.4649 17.1231 17.1582 17.5 17.1582C17.8769 17.1582 18.1836 17.4649 18.1836 17.8418Z" fill="#DC9171"/>
<path d="M24.8477 27.002H19.3789C19.0014 27.002 18.6953 27.308 18.6953 27.6855C18.6953 28.0631 19.0014 28.3691 19.3789 28.3691H24.8477C25.2251 28.3691 25.5312 28.0631 25.5312 27.6855C25.5312 27.308 25.2251 27.002 24.8477 27.002Z" fill="#DC9171"/>
<path d="M16.3047 28.3691C16.6822 28.3691 16.9883 28.0631 16.9883 27.6855C16.9883 27.308 16.6822 27.002 16.3047 27.002C15.9271 27.002 15.6211 27.308 15.6211 27.6855C15.6211 28.0631 15.9271 28.3691 16.3047 28.3691Z" fill="#DC9171"/>
<path d="M10.1523 28.3691C10.5299 28.3691 10.8359 28.0631 10.8359 27.6855C10.8359 27.308 10.5299 27.002 10.1523 27.002C9.77481 27.002 9.46875 27.308 9.46875 27.6855C9.46875 28.0631 9.77481 28.3691 10.1523 28.3691Z" fill="#DC9171"/>
<path d="M13.2266 28.3691C13.6041 28.3691 13.9102 28.0631 13.9102 27.6855C13.9102 27.308 13.6041 27.002 13.2266 27.002C12.849 27.002 12.543 27.308 12.543 27.6855C12.543 28.0631 12.849 28.3691 13.2266 28.3691Z" fill="#DC9171"/>
</g>
<defs>
<clipPath id="clip0_2320_280">
<rect width="35" height="35" rx="2" fill="white"/>
</clipPath>
</defs>
</svg>
