<svg width="27" height="26" viewBox="0 0 27 26" fill="none" xmlns="http://www.w3.org/2000/svg">
<g clip-path="url(#clip0_95_5932)">
<path d="M21.3525 3.14502H5.72754C4.44173 3.14502 3.33903 3.60482 2.41943 4.52441C1.49984 5.44401 1.04004 6.54671 1.04004 7.83252V17.2075C1.04004 18.4933 1.49984 19.596 2.41943 20.5156C3.33903 21.4352 4.44173 21.895 5.72754 21.895H21.3525C22.6383 21.895 23.741 21.4352 24.6606 20.5156C25.5802 19.596 26.04 18.4933 26.04 17.2075V7.83252C26.04 6.54671 25.5802 5.44401 24.6606 4.52441C23.741 3.60482 22.6383 3.14502 21.3525 3.14502ZM10.415 18.77V6.27002L18.2275 12.52L10.415 18.77Z" fill="#BEBDBD"/>
</g>
<defs>
<clipPath id="clip0_95_5932">
<rect width="25.24" height="25" fill="white" transform="matrix(1 0 0 -1 0.920044 25.02)"/>
</clipPath>
</defs>
</svg>
